<?xml version='1.0' encoding='UTF-8' standalone='no'?>
<!DOCTYPE svg PUBLIC '-//W3C//DTD SVG 1.1//EN' 'http://www.w3.org/Graphics/SVG/1.1/DTD/svg11.dtd'>
<!-- Animated using aniGen version 0.8.1 Quality of Life - http://anigen.org -->
<svg width="842px" height="455px" viewBox="30 150 842 455" fill="none" xmlns="http://www.w3.org/2000/svg" id="svg6704"
     preserveAspectRatio="xMidYMid" xmlns:svg="http://www.w3.org/2000/svg" xmlns:xlink="http://www.w3.org/1999/xlink"
     xmlns:sodipodi="http://sodipodi.sourceforge.net/DTD/sodipodi-0.dtd"
     xmlns:inkscape="http://www.inkscape.org/namespaces/inkscape" xmlns:anigen="http://www.anigen.org/namespace"
     anigen:version="0.8.1">
    <sodipodi:namedview id="base" bordercolor="#666666" borderopacity="1" inkscape:cx="134.82651455244246"
                        inkscape:cy="-183.49033200812187" inkscape:zoom="1"></sodipodi:namedview>
    <rect xmlns="http://www.w3.org/2000/svg" width="875" height="764" fill="white" id="rect7398"/>
    <g opacity="0.5" id="g9156">
        <path opacity="0.5" d="M79.3377 230.9H77.4375V241.668H79.3377V230.9Z" fill="#47E6B1" id="path6269"></path>
        <path opacity="0.5" d="M83.7716 237.234V235.334H73.0039V237.234H83.7716Z" fill="#47E6B1" id="path7399"></path>
    </g>
    <g opacity="0.5" id="g9421">
        <path opacity="0.5" d="M125.881 465.246H123.98V476.014H125.881V465.246Z" fill="#47E6B1" id="path9586"></path>
        <path opacity="0.5" d="M130.311 471.58V469.68H119.543V471.58H130.311Z" fill="#47E6B1" id="path5608"></path>
    </g>
    <g opacity="0.5" id="g1433">
        <path opacity="0.5" d="M52.3338 340.172H50.4336V350.94H52.3338V340.172Z" fill="#47E6B1" id="path1396"></path>
        <path opacity="0.5" d="M56.7678 346.506V344.605H46V346.506H56.7678Z" fill="#47E6B1" id="path7988"></path>
    </g>
    <g opacity="0.5" id="g3266">
        <path opacity="0.5" d="M364.007 157H362.107V167.768H364.007V157Z" fill="#47E6B1" id="path9316"></path>
        <path opacity="0.5" d="M368.442 163.334V161.434H357.674V163.334H368.442Z" fill="#47E6B1" id="path3746"></path>
    </g>
    <g opacity="0.5" id="g9238">
        <path opacity="0.5" d="M64.3808 183.779H62.4805V194.547H64.3808V183.779Z" fill="#47E6B1" id="path2011"></path>
        <path opacity="0.5" d="M68.811 190.113V188.213H58.043V190.113H68.811Z" fill="#47E6B1" id="path4237"></path>
    </g>
    <path opacity="0.5"
          d="M79.7875 426.822C79.2643 426.593 78.8432 426.18 78.6041 425.662C78.365 425.143 78.3256 424.554 78.4923 424.009C78.5191 423.926 78.5362 423.839 78.5436 423.752C78.5818 423.492 78.5299 423.228 78.3964 423.004C78.2634 422.778 78.0563 422.605 77.8109 422.515C77.5655 422.423 77.2962 422.42 77.0486 422.504C76.8003 422.587 76.5886 422.754 76.4493 422.975C76.3969 423.046 76.353 423.123 76.3182 423.203C76.0893 423.727 75.6768 424.148 75.1581 424.387C74.6394 424.626 74.0511 424.666 73.505 424.499C73.4216 424.472 73.3355 424.455 73.2482 424.447C72.9891 424.409 72.7249 424.462 72.4996 424.595C72.2741 424.728 72.1017 424.935 72.0104 425.18C71.9197 425.426 71.9158 425.695 71.9996 425.943C72.0841 426.191 72.2507 426.402 72.4721 426.542C72.5429 426.595 72.6194 426.639 72.7004 426.673C73.2236 426.902 73.6447 427.314 73.8832 427.833C74.1224 428.352 74.1623 428.941 73.9957 429.486C73.9683 429.569 73.9512 429.656 73.9443 429.743C73.9056 430.003 73.9575 430.267 74.091 430.492C74.2245 430.717 74.431 430.89 74.6764 430.98C74.9218 431.072 75.1912 431.076 75.4393 430.991C75.687 430.907 75.8987 430.741 76.0385 430.52C76.0904 430.448 76.135 430.372 76.1698 430.291C76.398 429.768 76.8106 429.346 77.3293 429.108C77.848 428.869 78.4364 428.829 78.983 428.996C79.0663 429.023 79.1524 429.04 79.2397 429.047C79.4983 429.085 79.763 429.034 79.9879 428.901C80.2132 428.767 80.3862 428.56 80.4769 428.315C80.5676 428.07 80.5716 427.8 80.4877 427.552C80.4038 427.305 80.2372 427.093 80.0158 426.953C79.945 426.9 79.868 426.856 79.7875 426.822Z"
          fill="#4D8AF0" id="path881"></path>
    <path opacity="0.5"
          d="M70.3711 529.163C69.8478 528.935 69.4268 528.522 69.1882 528.003C68.9491 527.485 68.9092 526.897 69.0758 526.351C69.1032 526.267 69.1203 526.181 69.1271 526.093C69.1659 525.835 69.114 525.571 68.9805 525.345C68.847 525.119 68.6404 524.948 68.395 524.856C68.1496 524.765 67.8803 524.762 67.6321 524.845C67.3844 524.929 67.1727 525.096 67.0329 525.318C66.981 525.388 66.9365 525.465 66.9017 525.546C66.6746 526.069 66.2632 526.49 65.7456 526.73C65.2281 526.97 64.6403 527.011 64.0942 526.847C64.0109 526.82 63.9247 526.802 63.8374 526.795C63.579 526.757 63.3141 526.809 63.0893 526.942C62.8639 527.076 62.6911 527.282 62.6003 527.528C62.5096 527.773 62.5056 528.042 62.5894 528.29C62.6733 528.538 62.84 528.75 63.0614 528.89C63.1321 528.942 63.2092 528.986 63.2896 529.021C63.8129 529.249 64.234 529.662 64.4731 530.181C64.7122 530.7 64.7515 531.288 64.585 531.835C64.5581 531.918 64.541 532.003 64.5335 532.091C64.4954 532.35 64.5473 532.614 64.6808 532.839C64.8137 533.064 65.0209 533.237 65.2663 533.329C65.5117 533.419 65.781 533.423 66.0287 533.339C66.2769 533.255 66.4886 533.088 66.6278 532.867C66.6802 532.796 66.7242 532.72 66.7591 532.639C66.9878 532.115 67.4004 531.694 67.9191 531.455C68.4378 531.216 69.0262 531.177 69.5722 531.343C69.6555 531.37 69.7417 531.387 69.829 531.395C70.0881 531.433 70.3522 531.381 70.5777 531.248C70.8031 531.114 70.9754 530.908 71.0667 530.662C71.1574 530.417 71.1614 530.148 71.0776 529.9C70.993 529.652 70.8265 529.44 70.605 529.301C70.5331 529.245 70.4544 529.2 70.3711 529.163Z"
          fill="#4D8AF0" id="path5470"></path>
    <path opacity="0.5"
          d="M416.74 302.624C416.217 302.396 415.795 301.983 415.557 301.464C415.318 300.946 415.278 300.358 415.445 299.812C415.472 299.728 415.489 299.642 415.496 299.554C415.535 299.296 415.483 299.031 415.35 298.806C415.216 298.58 415.009 298.408 414.764 298.317C414.519 298.226 414.25 298.222 414.001 298.306C413.754 298.39 413.542 298.557 413.402 298.779C413.35 298.849 413.305 298.926 413.271 299.007C413.044 299.53 412.632 299.951 412.115 300.191C411.597 300.431 411.009 300.472 410.463 300.308C410.38 300.281 410.293 300.263 410.207 300.256C409.948 300.218 409.683 300.27 409.459 300.403C409.233 300.537 409.06 300.743 408.969 300.989C408.879 301.234 408.875 301.503 408.959 301.751C409.043 301.999 409.209 302.211 409.43 302.35C409.501 302.403 409.578 302.447 409.659 302.482C410.183 302.71 410.603 303.123 410.842 303.642C411.081 304.161 411.121 304.749 410.954 305.296C410.927 305.379 410.91 305.464 410.902 305.552C410.864 305.811 410.916 306.075 411.05 306.301C411.183 306.525 411.39 306.698 411.635 306.789C411.881 306.88 412.15 306.884 412.398 306.8C412.646 306.716 412.858 306.549 412.997 306.328C413.05 306.257 413.093 306.181 413.128 306.1C413.357 305.577 413.769 305.155 414.288 304.916C414.807 304.677 415.395 304.638 415.941 304.804C416.024 304.831 416.111 304.848 416.198 304.856C416.457 304.894 416.722 304.842 416.947 304.709C417.172 304.575 417.345 304.369 417.435 304.123C417.527 303.878 417.531 303.609 417.447 303.361C417.362 303.113 417.196 302.901 416.974 302.762C416.902 302.707 416.824 302.661 416.74 302.624Z"
          fill="#4D8AF0" id="path484"></path>
    <path opacity="0.5"
          d="M401.067 410.665C400.544 410.437 400.122 410.024 399.884 409.505C399.645 408.986 399.605 408.399 399.771 407.852C399.799 407.769 399.816 407.683 399.823 407.595C399.861 407.337 399.809 407.072 399.677 406.846C399.543 406.622 399.336 406.449 399.09 406.358C398.845 406.267 398.576 406.263 398.328 406.347C398.08 406.431 397.869 406.598 397.728 406.82C397.676 406.89 397.632 406.967 397.598 407.048C397.369 407.57 396.956 407.992 396.438 408.231C395.919 408.469 395.33 408.509 394.784 408.343C394.7 408.317 394.615 408.299 394.528 408.292C394.268 408.254 394.004 408.305 393.779 408.439C393.554 408.572 393.381 408.778 393.29 409.024C393.199 409.27 393.195 409.539 393.279 409.787C393.363 410.035 393.53 410.246 393.751 410.386C393.822 410.438 393.899 410.482 393.979 410.517C394.503 410.745 394.924 411.159 395.163 411.677C395.402 412.196 395.442 412.784 395.275 413.33C395.248 413.414 395.231 413.5 395.223 413.587C395.185 413.846 395.238 414.11 395.37 414.335C395.504 414.561 395.711 414.733 395.956 414.824C396.202 414.915 396.47 414.919 396.718 414.835C396.966 414.751 397.178 414.584 397.318 414.363C397.371 414.292 397.415 414.216 397.449 414.135C397.677 413.611 398.09 413.191 398.609 412.952C399.128 412.713 399.716 412.673 400.262 412.839C400.345 412.866 400.432 412.884 400.519 412.891C400.778 412.929 401.043 412.877 401.268 412.744C401.492 412.611 401.666 412.404 401.756 412.158C401.848 411.913 401.851 411.644 401.767 411.396C401.683 411.148 401.517 410.936 401.296 410.797C401.224 410.744 401.148 410.701 401.067 410.665Z"
          fill="#4D8AF0" id="path2216"></path>
    <path opacity="0.5"
          d="M412.749 195.351C412.225 195.122 411.805 194.71 411.565 194.191C411.326 193.672 411.287 193.084 411.454 192.537C411.48 192.454 411.498 192.368 411.505 192.281C411.543 192.021 411.491 191.757 411.357 191.532C411.225 191.307 411.018 191.134 410.772 191.043C410.526 190.953 410.257 190.949 410.009 191.033C409.761 191.117 409.549 191.283 409.41 191.504C409.358 191.576 409.314 191.652 409.279 191.733C409.05 192.256 408.638 192.678 408.119 192.916C407.6 193.155 407.013 193.195 406.466 193.028C406.383 193.001 406.296 192.984 406.209 192.977C405.95 192.938 405.686 192.991 405.461 193.123C405.235 193.257 405.063 193.464 404.972 193.709C404.88 193.955 404.877 194.224 404.961 194.472C405.046 194.72 405.212 194.931 405.433 195.071C405.504 195.124 405.581 195.168 405.662 195.202C406.185 195.431 406.606 195.844 406.845 196.362C407.083 196.881 407.123 197.47 406.956 198.015C406.93 198.098 406.913 198.185 406.906 198.272C406.867 198.532 406.918 198.796 407.052 199.021C407.185 199.246 407.392 199.419 407.638 199.509C407.883 199.601 408.153 199.605 408.401 199.521C408.648 199.436 408.86 199.27 409 199.049C409.051 198.978 409.096 198.901 409.131 198.82C409.36 198.297 409.772 197.875 410.291 197.637C410.809 197.398 411.398 197.358 411.944 197.525C412.028 197.552 412.114 197.569 412.201 197.577C412.459 197.615 412.724 197.562 412.949 197.43C413.175 197.296 413.347 197.089 413.438 196.844C413.529 196.599 413.532 196.329 413.448 196.081C413.365 195.833 413.199 195.622 412.977 195.482C412.907 195.429 412.829 195.385 412.749 195.351Z"
          fill="#4D8AF0" id="path118"></path>
    <path opacity="0.5"
          d="M470.394 476.13C469.872 475.902 469.45 475.489 469.211 474.97C468.973 474.452 468.933 473.863 469.099 473.318C469.126 473.234 469.144 473.148 469.15 473.06C469.189 472.802 469.137 472.537 469.003 472.312C468.87 472.086 468.664 471.914 468.419 471.824C468.173 471.732 467.903 471.728 467.655 471.812C467.407 471.896 467.197 472.063 467.056 472.284C467.004 472.355 466.96 472.431 466.925 472.512C466.697 473.036 466.284 473.457 465.766 473.696C465.247 473.935 464.658 473.975 464.112 473.808C464.028 473.781 463.942 473.763 463.855 473.756C463.596 473.718 463.332 473.77 463.107 473.903C462.882 474.037 462.709 474.243 462.618 474.489C462.528 474.734 462.523 475.003 462.607 475.251C462.691 475.499 462.858 475.711 463.079 475.851C463.15 475.903 463.227 475.947 463.307 475.982C463.831 476.21 464.251 476.623 464.491 477.142C464.729 477.661 464.769 478.249 464.603 478.796C464.576 478.879 464.559 478.964 464.551 479.052C464.513 479.311 464.565 479.575 464.698 479.801C464.832 480.025 465.039 480.199 465.284 480.29C465.529 480.38 465.799 480.384 466.046 480.3C466.294 480.216 466.506 480.049 466.645 479.828C466.698 479.757 466.741 479.681 466.777 479.6C467.006 479.077 467.418 478.655 467.937 478.417C468.456 478.178 469.043 478.138 469.59 478.304C469.673 478.331 469.759 478.348 469.847 478.356C470.105 478.394 470.37 478.342 470.596 478.209C470.821 478.076 470.993 477.869 471.084 477.623C471.175 477.378 471.179 477.109 471.096 476.861C471.011 476.613 470.844 476.402 470.622 476.262C470.552 476.209 470.475 476.165 470.394 476.13Z"
          fill="#4D8AF0" id="path687"></path>
    <path opacity="0.5"
          d="M413.448 244.164C415.547 244.164 417.249 242.462 417.249 240.363C417.249 238.264 415.547 236.562 413.448 236.562C411.349 236.562 409.648 238.264 409.648 240.363C409.648 242.462 411.349 244.164 413.448 244.164Z"
          fill="#F55F44" id="path8359"></path>
    <path opacity="0.5"
          d="M240.6 387.225C242.964 387.225 244.88 385.309 244.88 382.946C244.88 380.582 242.964 378.666 240.6 378.666C238.237 378.666 236.32 380.582 236.32 382.946C236.32 385.309 238.237 387.225 240.6 387.225Z"
          fill="#F55F44" id="path2801"></path>
    <path opacity="0.5"
          d="M240.6 387.225C242.964 387.225 244.88 385.309 244.88 382.946C244.88 380.582 242.964 378.666 240.6 378.666C238.237 378.666 236.32 380.582 236.32 382.946C236.32 385.309 238.237 387.225 240.6 387.225Z"
          fill="#F55F44" id="path1073"></path>
    <path opacity="0.5"
          d="M481.652 358.431C483.751 358.431 485.452 356.729 485.452 354.63C485.452 352.531 483.751 350.83 481.652 350.83C479.553 350.83 477.852 352.531 477.852 354.63C477.852 356.729 479.553 358.431 481.652 358.431Z"
          fill="#F55F44" id="path1176"></path>
    <path opacity="0.5"
          d="M153.436 188.255C155.799 188.255 157.716 186.339 157.716 183.975C157.716 181.612 155.799 179.695 153.436 179.695C151.072 179.695 149.156 181.612 149.156 183.975C149.156 186.339 151.072 188.255 153.436 188.255Z"
          fill="#47E6B1" id="path7432"></path>
    <path opacity="0.5"
          d="M397.276 515.394C399.375 515.394 401.077 513.693 401.077 511.594C401.077 509.495 399.375 507.793 397.276 507.793C395.178 507.793 393.477 509.495 393.477 511.594C393.477 513.693 395.178 515.394 397.276 515.394Z"
          fill="#F55F44" id="path7933"></path>
    <path d="M160.587 374.717C158.34 382.015 161.729 390.643 168.308 394.483C171.07 396.092 174.249 396.902 176.925 398.649C182.74 402.438 185.033 409.691 186.922 416.367C189.09 424.042 191.265 432.156 189.279 439.877C188.012 444.801 185.13 449.155 183.493 453.971C182.123 458.005 181.646 462.288 182.095 466.525C182.334 468.774 182.893 471.09 184.434 472.767C186.66 475.165 190.243 475.524 193.462 476.101C200.266 477.387 206.668 480.268 212.143 484.507C217.618 488.747 222.01 494.224 224.96 500.489"
          stroke="url(#paint0_linear)" stroke-width="1.90802" stroke-miterlimit="10" id="path4516"></path>
    <path d="M161.279 374.717C159.031 382.015 162.42 390.643 169 394.483C171.762 396.092 174.94 396.902 177.617 398.649C183.431 402.438 185.725 409.691 187.614 416.367C189.782 424.042 191.957 432.156 189.97 439.877C188.703 444.801 185.822 449.155 184.184 453.971C182.815 458.005 182.338 462.288 182.787 466.525C183.026 468.774 183.585 471.09 185.126 472.767C187.351 475.165 190.935 475.524 194.154 476.101C200.958 477.387 207.359 480.268 212.835 484.507C218.31 488.747 222.702 494.224 225.652 500.489"
          stroke="#535461" stroke-width="1.90802" stroke-miterlimit="10" id="path6449"></path>
    <path d="M246.38 320.166C240.834 327.898 235.076 336.212 234.603 345.719C233.878 360.321 245.558 372.265 250.774 385.925C253.034 391.943 254.058 398.355 253.782 404.776C253.507 411.199 251.938 417.499 249.17 423.301C246.626 428.563 242.996 433.79 243.464 439.616C243.732 443.171 245.513 446.407 246.946 449.676C250.46 457.87 251.994 466.778 251.423 475.677C250.85 484.575 248.189 493.213 243.652 500.89"
          stroke="url(#paint1_linear)" stroke-width="1.90802" stroke-miterlimit="10" id="path7270"></path>
    <path d="M247.065 320.166C241.524 327.927 235.767 336.218 235.282 345.719C234.557 360.321 246.238 372.265 251.454 385.925C253.715 391.943 254.737 398.355 254.462 404.776C254.186 411.199 252.618 417.499 249.85 423.301C247.306 428.563 243.676 433.79 244.144 439.616C244.412 443.171 246.192 446.407 247.624 449.676C251.141 457.87 252.674 466.778 252.101 475.677C251.53 484.575 248.868 493.213 244.332 500.89"
          stroke="#535461" stroke-width="1.90802" stroke-miterlimit="10" id="path8930"></path>
    <path d="M324.203 389.713L326.885 411.573C327.239 414.478 327.541 417.644 325.983 420.132C324.505 422.478 321.732 423.597 319.575 425.331C312.493 431.038 313.138 441.942 315.581 450.695C318.023 459.449 321.537 468.853 318.143 477.276C316.739 480.75 314.262 483.678 312.436 486.942C309.303 492.52 308.062 498.962 308.899 505.305"
          stroke="url(#paint2_linear)" stroke-width="1.90802" stroke-miterlimit="10" id="path7861"></path>
    <path d="M324.871 389.713L327.552 411.573C327.906 414.478 328.209 417.644 326.651 420.132C325.173 422.478 322.4 423.597 320.243 425.331C313.161 431.038 313.806 441.942 316.248 450.695C318.69 459.449 322.206 468.853 318.811 477.276C317.406 480.75 314.93 483.678 313.104 486.942C309.972 492.52 308.731 498.962 309.566 505.305"
          stroke="#535461" stroke-width="1.90802" stroke-miterlimit="10" id="path829"></path>
    <g opacity="0.7" id="g5958">
        <path opacity="0.7"
              d="M370.026 315.563C370.022 306.962 367.982 298.484 364.075 290.823C360.168 283.161 354.504 276.532 347.545 271.478C340.586 266.424 332.53 263.088 324.034 261.744C315.54 260.399 306.847 261.083 298.668 263.74C299.118 260.679 299.35 257.589 299.363 254.493C299.385 240.368 293.92 226.787 284.12 216.614C274.321 206.441 260.953 200.471 246.837 199.965C232.721 199.458 218.96 204.454 208.457 213.898C197.953 223.342 191.527 236.497 190.537 250.587C182.355 247.924 173.659 247.235 165.16 248.578C156.661 249.92 148.6 253.255 141.637 258.311C134.674 263.366 129.007 269.997 125.099 277.663C121.19 285.328 119.151 293.81 119.15 302.414C119.15 329.767 139.305 368.638 165.53 375.524L169.614 377.856L167.397 385.452H180.526L177.676 377.846L181.74 375.524C202.021 370.202 218.648 345.771 225.16 322.339C228.725 324.711 232.65 326.494 236.782 327.617L240.867 329.949L238.683 337.527H251.812L248.962 329.921L253.026 327.598C256.039 326.788 258.94 325.61 261.664 324.09C265.172 350.378 283.835 382.472 307.45 388.668L311.533 391L309.316 398.596H322.446L319.586 390.99L323.65 388.668C349.895 381.781 370.026 342.897 370.026 315.563Z"
              fill="url(#paint3_linear)" id="path5930"></path>
    </g>
    <path d="M174.796 389.975H166.593L161.805 387.242H179.584L174.796 389.975Z" fill="#535461" id="path2709"></path>
    <path d="M177.874 397.838H164.195L166.593 389.635H174.796L177.874 397.838Z" fill="#F55F44" id="path8035"></path>
    <g id="g3398">
        <path d="M 227.444 311.343 C 227.444 342.688 202.034 388.606 170.694 388.606 C 139.353 388.606 113.943 342.683 113.943 311.343 C 113.943 296.291 119.922 281.856 130.566 271.213 C 141.208 260.57 155.644 254.59 170.696 254.59 C 185.748 254.59 200.183 260.57 210.827 271.213 C 221.47 281.856 227.449 296.291 227.449 311.343 L 227.444 311.343 Z"
              fill="#F55F44" id="path6132" transform="matrix(1 0 0 1 0 0)" inkscape:transform-center-x="null"
              inkscape:transform-center-y="null"></path>
        <animateTransform attributeName="transform" attributeType="auto" type="rotate"
                          values="1.2956809383734367 172.23822138247147 389.7845962043785;10.925267554585332 170.24 389.7845962043785;1.2956809383734367 172.23822138247147 389.7845962043785"
                          calcMode="spline" keyTimes="0;0.5;1" keySplines="0 0 1 1;0 0 1 1" dur="2s" begin="0s"
                          repeatCount="indefinite" additive="sum" accumulate="none" fill="freeze"
                          id="animateTransform6909"></animateTransform>
    </g>
    <g id="g6662">
        <animateTransform attributeName="transform" attributeType="auto" type="rotate"
                          values="16.488646501048493 137.56917382415932 307.33915972174844;6.371706803500103 129.08389244992074 307.33915972174844;16.488646501048493 137.56917382415932 307.33915972174844"
                          calcMode="spline" keyTimes="0;0.5;1" keySplines="0 0 1 1;0 0 1 1" dur="2s" begin="0s"
                          repeatCount="indefinite" additive="sum" accumulate="none" fill="freeze"
                          id="animateTransform359"></animateTransform>
    </g>
    <path d="M249.011 340.086H240.808L236.02 337.348H253.8L249.011 340.086Z" fill="#535461" id="path2927"></path>
    <path d="M252.088 347.949H238.41L240.807 339.746H249.01L252.088 347.949Z" fill="#4D8AF0" id="path9823"></path>
    <g id="g9786">
        <path d="M 301.66 261.454 C 301.66 292.8 276.249 338.717 244.909 338.717 C 213.569 338.717 188.158 292.795 188.158 261.454 C 188.158 246.402 194.138 231.967 204.781 221.324 C 215.424 210.68 229.86 204.701 244.911 204.701 C 259.963 204.701 274.399 210.68 285.042 221.324 C 295.685 231.967 301.665 246.402 301.665 261.454 L 301.66 261.454 Z"
              fill="#5362E4" id="path8828"></path>
        <animateTransform attributeName="transform" attributeType="auto" type="rotate"
                          values="8.45439741280967 242.7640107034465 335.1207524661091;4.159490728465073 237.76 335.1207524661091;8.45439741280967 242.7640107034465 335.1207524661091"
                          calcMode="spline" keyTimes="0;0.5;1" keySplines="0 0 1 1;0 0 1 1" dur="1s" begin="0s"
                          repeatCount="indefinite" additive="sum" accumulate="none" fill="freeze"
                          id="animateTransform2250"></animateTransform>
    </g>

    <path d="M322.603 403.697H314.4L309.611 400.965H327.392L322.603 403.697Z" fill="#535461" id="path2450"></path>
    <path d="M325.682 411.565H312.004L314.4 403.357H322.603L325.682 411.565Z" fill="#3AD29F" id="path1971"></path>
    <g id="g2137">
        <path d="M 375.251 325.065 C 375.251 356.411 349.84 402.329 318.5 402.329 C 287.16 402.329 261.744 356.411 261.744 325.065 C 261.744 310.014 267.724 295.578 278.367 284.935 C 289.011 274.291 303.446 268.312 318.497 268.312 C 333.549 268.312 347.985 274.291 358.628 284.935 C 369.271 295.578 375.251 310.014 375.251 325.065 Z"
              fill="#3AD29F" id="path6763"></path>
        <animateTransform attributeName="transform" attributeType="auto" type="rotate"
                          values="0 320.32750256448685 399.6042481716136;8.861373585357683 319.33 399.6042481716136;0 320.32750256448685 399.6042481716136"
                          calcMode="spline" keyTimes="0;0.5;1" keySplines="0 0 1 1;0 0 1 1" dur="3s" begin="0s"
                          repeatCount="indefinite" additive="sum" accumulate="none" fill="freeze"
                          id="animateTransform5575"></animateTransform>
    </g>
    <path opacity="0.1" d="M297.99 280.961C297.99 280.961 274.057 293.953 270.637 319.937L297.99 280.961Z" fill="white"
          id="path325"></path>
    <g opacity="0.5" id="g3804">
        <path opacity="0.5"
              d="M276.876 421.234C273.586 417.933 268.786 416.62 263.363 417.535C258.29 418.392 253.212 421.151 249.069 425.283C247.869 426.49 246.86 427.873 246.078 429.385C245.316 427.822 244.316 426.389 243.113 425.134C239.043 420.924 234.011 418.088 228.933 417.158C223.53 416.125 218.71 417.38 215.357 420.624C212.005 423.868 210.631 428.646 211.468 434.08C212.253 439.164 214.929 444.283 219.005 448.482C227.569 457.322 244.662 453.871 245.386 453.716L245.598 453.669L246.254 453.819C246.977 453.985 264.008 457.729 272.723 449.04C276.855 444.908 279.629 439.841 280.508 434.768C281.463 429.339 280.166 424.54 276.876 421.234ZM242.514 448.612C238.381 449.17 228.086 449.924 222.977 444.65C219.691 441.256 217.543 437.206 216.928 433.234C216.37 429.618 217.175 426.518 219.211 424.566C220.006 423.803 220.956 423.221 221.995 422.861C223.918 422.239 225.971 422.136 227.947 422.561C231.893 423.3 235.881 425.573 239.166 428.967C244.275 434.205 243.201 444.495 242.514 448.607V448.612ZM275.114 433.833C274.433 437.79 272.217 441.809 268.869 445.141C263.668 450.306 253.372 449.392 249.266 448.756C248.651 444.624 247.752 434.349 252.953 429.163C256.301 425.831 260.325 423.625 264.282 422.965C266.265 422.573 268.316 422.712 270.228 423.367C271.263 423.746 272.205 424.345 272.986 425.124C274.98 427.123 275.734 430.211 275.114 433.827V433.833Z"
              fill="url(#paint4_linear)" id="path5017"></path>
    </g>
    <path d="M247.065 452.589L245.438 452.93C244.746 453.074 228.392 456.375 220.193 447.919C216.298 443.9 213.736 439.003 212.961 434.136C212.155 428.935 213.478 424.364 216.681 421.259C219.883 418.154 224.497 416.976 229.667 417.942C234.508 418.847 239.322 421.558 243.217 425.582C251.41 434.039 247.597 450.285 247.432 450.972L247.065 452.589ZM223.029 423.408C222.033 423.753 221.124 424.31 220.364 425.04C218.422 426.925 217.646 429.87 218.179 433.336C218.767 437.133 220.823 441.013 223.97 444.262C228.861 449.309 238.712 448.585 242.664 448.053C243.32 444.122 244.353 434.297 239.462 429.25C236.315 426.006 232.503 423.826 228.722 423.123C226.833 422.716 224.869 422.814 223.029 423.408Z"
          fill="#F4516C" id="path6303"></path>
    <path d="M244.648 452.662L244.286 451.04C244.132 450.348 240.598 434.04 248.936 425.728C252.903 421.777 257.759 419.147 262.614 418.326C267.78 417.448 272.393 418.703 275.529 421.864C278.664 425.026 279.92 429.613 279.026 434.779C278.189 439.629 275.544 444.48 271.577 448.431C263.239 456.743 246.942 453.158 246.265 453.003L244.648 452.662ZM269.185 423.874C267.358 423.248 265.399 423.114 263.503 423.486C259.712 424.127 255.863 426.239 252.655 429.427C247.675 434.391 248.522 444.226 249.127 448.173C253.068 448.772 262.909 449.666 267.883 444.707C271.086 441.514 273.204 437.671 273.86 433.859C274.454 430.403 273.731 427.443 271.82 425.527C271.07 424.794 270.172 424.229 269.185 423.874Z"
          fill="#F4516C" id="path2166"></path>
    <g opacity="0.5" id="g6267">
        <path opacity="0.5" d="M324.409 448.316H165.816V476.996H174.055V560H316.169V476.996H324.409V448.316Z"
              fill="url(#paint5_linear)" id="path3469"></path>
    </g>
    <path d="M314 458H176V560H314V458Z" fill="#C4C4C4" id="path2181"></path>
    <path d="M258 475H232V559H258V475Z" fill="#F4516C" id="path6996"></path>
    <path opacity="0.1" d="M314.374 451.887H175.855V479.993H314.374V451.887Z" fill="black" id="path5782"></path>
    <path d="M322.407 449.877H167.828V477.984H322.407V449.877Z" fill="#C4C4C4" id="path437"></path>
    <path d="M258.16 449.877H232.062V477.984H258.16V449.877Z" fill="#F4516C" id="path4242"></path>
    <path d="M64.1543 227.128C54.5036 227.128 48.6323 226.579 48.5039 226.566L48.612 225.46C48.8962 225.488 77.4619 228.155 112.77 221.569C145.32 215.497 190.426 200.092 220.467 161.181L220.749 160.816L221.16 161.025C221.547 161.223 260.437 180.912 306.081 195.186C332.868 203.564 356.703 208.465 376.925 209.753C402.128 211.358 421.728 207.323 435.189 197.761L435.833 198.668C422.157 208.382 402.308 212.484 376.847 210.862C356.536 209.568 332.61 204.65 305.735 196.244C262.528 182.729 225.364 164.374 221.067 162.223C207.738 179.37 190.424 193.423 169.602 203.992C152.838 212.501 133.776 218.784 112.943 222.668C96.8488 225.628 80.5188 227.121 64.1543 227.128V227.128Z"
          fill="#2F2E41" id="path630"></path>
    <path d="M77.5781 226.786L95.041 225.35L88.0303 248.807L77.5781 226.786Z" fill="#F4516C" id="path6410"></path>
    <path d="M114.355 222.399L120.275 239.356L127.008 219.613L114.355 222.399Z" fill="#FFB822" id="path6920"></path>
    <path d="M167.049 203.941L183.658 216.006L180.412 198.002L167.049 203.941Z" fill="#0BB4AF" id="path9588"></path>
    <path d="M250.688 174.566L252.594 198.213L263.205 180.961L250.688 174.566Z" fill="#5362E4" id="path1051"></path>
    <path d="M369.189 210.219L381.58 236.019L392.126 210.219H369.189Z" fill="#FFB822" id="path9267"></path>
    <path d="M294.889 192.713L294.848 218.228L309.817 197.499L294.889 192.713Z" fill="#F4516C" id="path4173"></path>
    <g clip-path="url(#clip0)" id="g9646">
        <path d="M762.84 357.527L762.105 356.676C764.503 354.905 766.408 352.556 767.643 349.849C768.878 347.141 769.4 344.165 769.162 341.201C768.952 339.492 768.615 337.801 768.154 336.142C767.872 335.009 767.573 333.842 767.368 332.667C766.71 329.03 767.112 326.067 768.564 323.844L769.547 324.397C768.24 326.39 767.889 329.116 768.496 332.497C768.701 333.638 768.992 334.788 769.273 335.903C769.748 337.61 770.093 339.349 770.307 341.107C770.567 344.251 770.017 347.409 768.711 350.283C767.404 353.156 765.383 355.65 762.84 357.527Z"
              fill="#343433" id="path9273"></path>
        <path d="M768.598 318.07L764.096 326.28C767.086 326.527 770.076 326.902 773.083 327.132C771.87 324.262 769.82 320.983 768.598 318.07Z"
              fill="#FFAE00" id="path7819"></path>
        <g id="g1219">
            <path d="M 747.335 289.377 C 747.737 286.259 748.768 283.254 750.367 280.544 C 751.966 277.835 754.1 275.477 756.639 273.612 C 761.919 269.873 769.36 268.587 775.571 270.955 C 780.34 272.926 784.258 276.512 786.635 281.081 C 788.65 284.756 789.788 288.844 789.962 293.029 C 790.135 297.213 789.339 301.381 787.634 305.209 C 784.755 311.545 776.246 321.646 767.489 320.326 C 759.74 319.159 752.564 310.259 749.71 304.144 C 747.51 299.552 746.685 294.424 747.335 289.377 L 747.335 289.377 Z"
                  fill="#FFAE00" id="path6770"></path>
            <animateTransform attributeName="transform" attributeType="auto" type="rotate"
                              values="0 766.8771423515432 316.82502755803506;12.564550983549736 759.88 316.82502755803506;0 766.8771423515432 316.82502755803506"
                              calcMode="spline" keyTimes="0;0.5;1" keySplines="0 0 1 1;0 0 1 1" dur="1s" begin="0s"
                              repeatCount="indefinite" additive="sum" accumulate="none" fill="freeze"
                              id="animateTransform933"></animateTransform>
        </g>
        <path d="M777.141 280.145C774.39 280.145 774.39 284.403 777.141 284.403C779.892 284.403 779.892 280.145 777.141 280.145Z"
              fill="#F2F2F2" id="path3809"></path>
        <path d="M708.111 423.25C707.849 423.22 707.586 423.292 707.376 423.451C707.166 423.609 707.026 423.842 706.983 424.102C706.015 428.012 704.272 431.689 701.857 434.918C701.581 435.349 701.21 435.713 700.772 435.982C699.659 432.823 699.154 429.483 699.286 426.137C699.371 421.359 699.73 416.59 699.645 411.804C699.602 409.419 698.978 408.848 696.543 408.882C696.211 408.893 695.88 408.924 695.552 408.976C695.069 409.023 694.612 409.216 694.242 409.53C693.873 409.843 693.608 410.262 693.485 410.73C692.713 413.194 692.119 415.71 691.708 418.259C691.34 420.175 691.358 422.151 690.802 424.051C689.951 427.377 688.667 430.578 686.983 433.572C686.39 434.635 685.618 435.588 684.702 436.391C684.514 435.846 684.326 435.378 684.181 434.892C683.704 433.124 683.474 431.298 683.498 429.467C683.568 424.435 684.088 419.418 685.052 414.478C685.317 412.902 685.685 411.335 685.821 409.742C685.906 409.432 685.895 409.102 685.788 408.798C685.681 408.494 685.484 408.229 685.223 408.039C684.503 407.687 683.708 407.516 682.906 407.543C682.104 407.57 681.322 407.793 680.627 408.192C677.036 410.717 672.989 412.525 668.709 413.515C668.316 413.618 668.171 413.473 668.008 413.166C667.524 412.269 666.936 411.432 666.257 410.671C664.01 408.167 661.387 406.344 657.867 406.225C656.15 406.072 654.432 406.524 653.015 407.503C650.93 409.053 650.742 411.352 652.545 413.209C653.107 413.764 653.756 414.224 654.467 414.571C656.207 415.42 658.069 415.995 659.986 416.275C658.844 418.009 657.896 419.862 657.158 421.802C657.021 422.16 656.722 422.202 656.44 422.296C654.578 422.918 652.707 423.497 650.862 424.153C650.255 424.366 650.153 424.204 650.101 423.642C649.839 420.781 649.316 417.95 648.538 415.185C647.732 412.061 646.244 409.153 644.181 406.668C641.669 403.789 635.885 402.912 633.014 406.889C630.793 409.964 628.649 413.09 626.53 416.258C624.582 419.153 622.694 422.083 620.157 424.519C619.563 425.142 618.891 425.686 618.157 426.137C618.005 425.797 617.929 425.428 617.935 425.055C617.869 423.017 618.158 420.983 618.79 419.043C620.225 413.888 622.568 409.029 625.71 404.692C626.257 403.934 626.163 403.679 625.248 403.432C624.274 403.188 623.245 403.287 622.335 403.713C621.213 404.213 620.2 404.927 619.353 405.816C616.376 409.011 614.129 412.812 612.766 416.956C611.773 419.496 611.313 422.212 611.417 424.936C611.553 427.236 612.681 428.786 614.714 429.39C616.019 429.764 617.389 429.848 618.73 429.637C621.11 429.203 623.272 427.979 624.864 426.163C626.895 423.981 628.669 421.575 630.152 418.992C632.073 415.695 634.161 412.497 636.406 409.41C636.81 408.82 637.283 408.279 637.816 407.801C638.406 408.764 638.896 409.786 639.277 410.85C641.131 415.909 641.84 421.189 642.31 426.512C642.369 427.202 642.139 427.457 641.532 427.713C634.927 430.328 628.903 434.215 623.805 439.151C621.002 441.927 618.781 445.112 617.927 449.047C616.756 454.472 619.635 458.807 625.086 459.821C628.845 460.543 632.739 459.756 635.919 457.632C643.916 452.445 648.239 444.857 649.982 435.667C650.418 433.005 650.576 430.305 650.452 427.611C650.452 427.329 650.315 427.006 650.733 426.844C652.502 426.146 654.262 425.422 656.133 424.664C655.766 426.052 655.415 427.27 655.108 428.496C654.087 432.089 653.837 435.855 654.373 439.551C654.732 441.51 655.398 443.358 657.338 444.269C658.556 444.902 659.928 445.183 661.299 445.081C662.67 444.979 663.984 444.497 665.095 443.69C666.317 442.754 667.271 441.515 667.863 440.096C671.515 432.796 672.129 424.355 669.572 416.607C669.401 416.07 669.427 415.892 670.025 415.755C672.821 415.167 675.537 414.249 678.115 413.021C678.303 412.936 678.5 412.877 678.756 412.783C678.756 412.979 678.696 413.081 678.671 413.175C677.471 417.804 676.857 422.565 676.842 427.346C676.708 430.07 677.103 432.794 678.004 435.369C678.473 436.787 679.429 437.993 680.704 438.776C682.118 439.498 683.724 439.757 685.295 439.517C686.865 439.277 688.32 438.55 689.452 437.439C690.399 436.375 691.193 435.186 691.81 433.904C692.092 434.603 692.349 435.267 692.665 435.914C694.202 439.415 697.073 440.539 700.892 440.045C701.796 439.932 702.652 439.575 703.368 439.012C704.083 438.449 704.63 437.702 704.95 436.851C705.266 436.161 705.582 435.463 705.924 434.782C707.564 431.472 708.63 427.91 709.077 424.246C709.111 423.454 708.94 423.25 708.111 423.25ZM631.904 454.719C630.795 455.7 629.515 456.471 628.128 456.993C627.858 457.108 627.562 457.15 627.271 457.114C626.98 457.078 626.703 456.966 626.47 456.789C625.511 456.138 624.748 455.239 624.262 454.189C623.776 453.139 623.585 451.977 623.711 450.827C623.881 447.42 625.419 444.627 627.418 442.046C630.4 438.256 634.21 435.403 638.243 432.831C639.588 431.979 640.977 431.197 642.404 430.489C641.797 439.977 639.208 448.374 631.904 454.719ZM656.774 411.531C656.486 411.11 656.31 410.624 656.261 410.117C656.261 408.508 657.474 407.758 658.824 408.414C660.723 409.414 662.317 410.906 663.438 412.732C663.6 412.979 663.626 413.081 663.309 413.294C662.87 413.566 662.372 413.729 661.856 413.77C661.34 413.812 660.822 413.73 660.345 413.532C658.978 413.149 657.628 412.74 656.748 411.522L656.774 411.531ZM663.233 439.432C662.86 440.099 662.437 440.736 661.968 441.339C661.721 441.639 661.455 441.923 661.174 442.191C660.643 441.131 660.352 439.968 660.319 438.784C660.063 433.674 661.071 428.735 662.378 423.838C663.002 421.513 663.711 419.205 664.54 416.939C664.608 416.743 664.591 416.454 664.933 416.462C665.274 416.471 665.24 416.769 665.3 416.956C667.58 424.43 666.825 432.498 663.198 439.423L663.233 439.432Z"
              fill="#333333" id="path6809"></path>
        <path d="M606.505 418.864C606.106 418.725 605.683 418.671 605.261 418.706C604.84 418.741 604.431 418.865 604.062 419.069C602.934 419.66 601.777 420.192 600.593 420.661C600.149 420.857 600.029 420.721 599.969 420.287C599.79 419.055 599.504 417.841 599.115 416.658C597.808 412.673 594.895 410.697 590.7 410.978C587.735 411.174 585.719 412.681 585.052 415.177C584.685 416.538 584.769 417.98 585.292 419.29C585.447 419.611 585.483 419.976 585.394 420.321C584.396 423.893 583.027 427.353 581.31 430.643V430.643C581.311 430.738 581.286 430.832 581.24 430.915C581.194 430.999 581.127 431.069 581.046 431.12C581.004 431.047 580.978 430.966 580.971 430.882C580.963 430.798 580.974 430.713 581.003 430.634C580.26 424.57 580.687 418.507 581.046 412.434C581.046 411.94 581.259 411.761 581.755 411.676C583.319 411.448 584.864 411.103 586.377 410.646C586.873 410.525 587.34 410.308 587.752 410.007C587.94 409.845 588.205 409.683 588.12 409.394C588.034 409.104 587.744 409.053 587.504 409.002C587.054 408.898 586.584 408.921 586.146 409.07C584.709 409.507 583.237 409.824 581.746 410.015C581.319 410.101 581.216 409.956 581.259 409.547C581.328 408.917 581.353 408.278 581.379 407.648C581.548 405.799 581.525 403.939 581.31 402.095C581.264 401.765 581.118 401.456 580.893 401.21C580.667 400.963 580.372 400.791 580.046 400.715C579.702 400.576 579.334 400.507 578.962 400.512C578.591 400.517 578.225 400.595 577.884 400.742C577.544 400.89 577.236 401.104 576.98 401.371C576.723 401.638 576.522 401.954 576.389 402.299C575.404 404.59 574.718 406.997 574.348 409.462C574.074 410.995 574.057 410.969 572.494 411.106C569.105 411.309 565.754 411.924 562.515 412.937C561.753 413.147 561.035 413.494 560.396 413.959C560.037 414.257 559.661 414.597 560.114 415.1C560.567 415.602 561.233 415.594 561.481 415.253C562.105 414.401 563.045 414.401 563.882 414.197C566.897 413.555 569.951 413.103 573.023 412.843C573.801 412.749 573.818 413.005 573.741 413.643C573.001 418.808 572.97 424.048 573.647 429.221C573.898 431.188 574.439 433.108 575.253 434.918C575.451 435.403 575.75 435.84 576.13 436.201C576.51 436.562 576.962 436.839 577.457 437.013C579.09 437.569 580.864 437.545 582.481 436.945C584.027 436.375 584.753 435.054 585.403 433.683C585.676 433.104 585.907 432.508 586.257 431.75C586.482 432.805 586.805 433.838 587.223 434.833C587.56 435.801 588.167 436.653 588.974 437.289C589.781 437.924 590.753 438.316 591.776 438.419C592.905 438.608 594.066 438.457 595.108 437.985C596.151 437.514 597.028 436.742 597.628 435.77C598.03 435.151 598.371 434.495 598.645 433.811C599.847 430.805 600.445 427.593 600.405 424.357C600.37 424.14 600.42 423.917 600.546 423.736C600.672 423.555 600.863 423.43 601.08 423.387C602.809 422.769 604.456 421.942 605.984 420.925C606.331 420.708 606.643 420.438 606.907 420.125C607.351 419.503 607.24 419.111 606.505 418.864ZM591.383 412.732C592.528 412.238 593.476 413.047 594.322 413.754C595.243 414.606 595.924 415.684 596.296 416.88C596.77 418.221 597.127 419.6 597.364 421.002C597.466 421.538 597.364 421.802 596.757 421.93C594.365 422.433 592.656 421.283 591.229 419.614C590.367 418.494 589.896 417.124 589.888 415.713C589.991 414.572 590.136 413.269 591.383 412.732V412.732ZM597.569 424.962C597.376 428.607 596.166 432.126 594.074 435.123C593.152 436.443 592.895 436.383 592.28 434.867C591.474 432.698 590.974 430.428 590.794 428.122C590.648 426.759 590.58 425.388 590.469 423.932C592.58 424.663 594.839 424.868 597.047 424.528C597.432 424.468 597.594 424.519 597.569 424.971V424.962Z"
              fill="#333333" id="path5709"></path>
        <path d="M779.705 386.628C778.266 378.649 776.134 370.809 773.331 363.199C771.896 359.375 770.444 355.534 769.017 351.744C768.581 350.577 768 349.563 766.65 349.282C765.685 349.072 764.685 349.072 763.72 349.282C763.373 349.345 763.05 349.505 762.79 349.744C762.53 349.982 762.343 350.288 762.251 350.628C760.286 356.181 758.338 361.7 756.27 367.261C754.348 372.473 752.238 377.617 749.145 382.284C748.974 382.548 748.88 382.915 748.496 383.017C748.269 381.993 748.149 380.948 748.137 379.9C748.137 374.168 749.136 368.53 749.743 362.866C750.187 359.736 750.441 356.582 750.503 353.421C750.503 351.548 749.897 350.977 748.009 350.866C747.701 350.846 747.393 350.846 747.086 350.866C746.634 350.857 746.194 351.007 745.844 351.291C745.493 351.575 745.255 351.974 745.172 352.416C745.01 353.132 744.711 353.813 744.557 354.537C743.289 360.596 741.576 366.554 739.431 372.362C737.722 376.885 735.911 381.339 732.964 385.231C732.754 385.607 732.462 385.93 732.109 386.177C731.879 384.38 731.841 382.564 731.998 380.76C732.442 375.343 733.237 369.969 733.835 364.578C734.162 362.322 734.223 360.035 734.014 357.765C734 357.316 733.83 356.886 733.532 356.548C733.234 356.211 732.828 355.988 732.383 355.917C732.075 355.849 731.768 355.806 731.622 355.38C731.296 354.476 730.742 353.672 730.014 353.044C729.285 352.416 728.406 351.985 727.462 351.795C725.324 351.154 723.05 351.109 720.889 351.666C718.727 352.223 716.76 353.361 715.202 354.954C710.605 359.306 708.145 364.774 706.898 370.855C706.633 372.141 706.804 373.563 706.342 374.756C705.321 377.057 704.085 379.259 702.652 381.331C702.368 379.945 702.177 378.542 702.079 377.132C701.835 371.579 701.977 366.015 702.506 360.482C703.156 351.292 703.292 342.077 703.438 332.871C703.571 330.871 703.413 328.863 702.968 326.909C702.335 324.644 698.884 323.451 696.987 324.797C696.716 325.017 696.52 325.314 696.423 325.648C692.707 334.165 689.17 342.827 685.676 351.471C684.779 353.694 683.967 355.934 683.036 358.225C682.563 357.36 681.927 356.594 681.165 355.968C678.431 353.864 673.758 353.719 670.673 355.534C668.683 356.7 667.367 358.548 665.898 360.192C664.731 361.536 663.777 363.049 663.07 364.68C661.521 368.171 660.69 371.936 660.626 375.752C660.623 376.305 660.522 376.853 660.327 377.37C659.319 379.968 658.277 382.565 657.064 385.035C656.676 385.95 656.168 386.81 655.552 387.59C655.757 382.48 656.474 377.617 657.03 372.746C657.636 367.38 658.285 362.006 658.004 356.564C657.969 354.411 657.6 352.277 656.91 350.236C656.683 349.466 656.276 348.76 655.724 348.175C655.172 347.591 654.489 347.144 653.732 346.872C651.058 346.02 648.529 346.37 646.521 348.644C640.344 355.636 637.508 363.974 636.756 373.069L636.688 373.384L636.577 373.861C636.337 373.785 636.397 373.572 636.38 373.401C636.107 370.932 635.936 368.453 635.833 365.966C635.482 359.066 635.502 352.152 635.893 345.254C636.747 332.879 637.85 320.556 638.832 308.164C638.891 307.122 638.834 306.076 638.661 305.047C638.627 304.611 638.421 304.207 638.089 303.922C637.289 303.361 636.311 303.111 635.339 303.217C634.367 303.324 633.467 303.781 632.809 304.502C632.149 305.313 631.598 306.206 631.169 307.159C629.882 309.847 628.868 312.658 628.144 315.548C626.018 323.902 624.42 332.382 623.36 340.936C623.232 341.975 623.249 341.975 622.215 341.592C618.511 340.18 615.125 338.049 612.253 335.323C611.947 335.09 611.723 334.765 611.614 334.396C611.505 334.027 611.517 333.633 611.647 333.271C612.723 328.706 614.295 324.269 615.389 319.704C615.825 317.873 615.654 317.421 613.432 317.524C613.033 317.561 612.642 317.668 612.279 317.839C611.113 318.419 610.145 319.328 609.494 320.453C607.828 322.925 606.411 325.556 605.265 328.306C604.966 329.004 604.752 329.157 604.052 328.689C600.304 326.182 595.776 325.102 591.296 325.648C584.761 326.5 581.548 332.283 584.462 337.913C584.806 338.691 585.366 339.355 586.076 339.827C586.785 340.299 587.615 340.56 588.468 340.578C588.955 340.578 589.536 340.621 589.835 340.186C590.134 339.752 589.408 339.607 589.357 339.216C589.36 339.187 589.36 339.159 589.357 339.13C588.05 335.724 588.281 332.317 591.023 329.592C591.566 328.974 592.297 328.551 593.104 328.388C593.911 328.225 594.75 328.331 595.491 328.689C598.169 329.949 600.62 331.641 602.745 333.697C603.129 334.037 602.924 334.378 602.813 334.702C602.139 336.707 601.568 338.745 601.104 340.808C599.543 347.29 598.763 353.935 598.78 360.601C598.934 362.927 598.709 365.262 598.114 367.516C597.781 368.564 597.542 369.646 597.26 370.719C595.913 376.424 593.936 381.962 591.365 387.233C591.219 387.514 591.168 387.88 590.784 388.084C590.611 384.884 590.677 381.676 590.98 378.486C591.587 372.005 592.86 365.617 593.663 359.162C594.077 356.646 594.198 354.091 594.022 351.548C594.016 351.194 593.928 350.846 593.765 350.531C593.602 350.216 593.368 349.943 593.082 349.734C592.029 349.082 590.76 348.875 589.554 349.156C588.348 349.437 587.303 350.184 586.649 351.233C586.486 351.522 586.41 351.871 586.076 352.084C583.877 353.352 581.361 353.969 578.823 353.864C578.362 353.864 578.216 353.668 578.191 353.2C578.08 350.992 577.855 348.792 577.516 346.608C577.046 343.857 576.542 341.106 575.038 338.67C573.33 335.962 570.766 335.357 567.904 335.724C566.59 335.882 565.36 336.454 564.395 337.358C563.429 338.262 562.779 339.45 562.539 340.749C562.252 342.073 562.235 343.442 562.489 344.773C562.742 346.105 563.262 347.372 564.017 348.499C566.085 351.982 569.323 353.966 573.082 355.193C573.212 355.21 573.337 355.252 573.45 355.317C573.564 355.382 573.663 355.469 573.742 355.573C573.822 355.677 573.88 355.795 573.913 355.922C573.946 356.048 573.954 356.179 573.936 356.309C574.012 360.485 573.749 364.66 573.15 368.794C572.285 374.91 570.345 380.826 567.417 386.27C566.582 387.81 565.598 389.265 564.479 390.614C564.18 390.963 564 391.014 563.761 390.571C563.337 389.823 562.974 389.043 562.676 388.238C560.867 382.811 559.925 377.135 559.882 371.417C559.694 365.941 560.19 360.499 560.455 355.04C560.58 353.541 560.626 352.037 560.591 350.534C560.625 350.081 560.483 349.633 560.193 349.282C559.903 348.931 559.489 348.706 559.036 348.652C558.292 348.434 557.496 348.467 556.772 348.748C556.049 349.028 555.439 349.54 555.038 350.202C554.609 350.946 554.276 351.742 554.047 352.57C552.853 356.636 552.128 360.825 551.885 365.055C551.224 371.733 551.854 378.475 553.739 384.916C554.473 387.754 555.947 390.349 558.011 392.436C558.852 393.226 559.851 393.827 560.943 394.201C562.035 394.575 563.195 394.712 564.344 394.604C565.494 394.496 566.607 394.145 567.61 393.575C568.613 393.004 569.482 392.227 570.16 391.295C571.456 389.464 572.518 387.478 573.321 385.384C575.953 378.463 577.556 371.195 578.08 363.812C578.285 361.427 578.319 359.034 578.319 356.632C578.319 356.309 578.233 355.976 578.797 355.976C580.972 355.98 583.129 355.587 585.162 354.818C584.795 356.249 584.41 357.603 584.094 358.966C582.326 366.631 580.993 374.296 581.386 382.208C581.499 385.401 582.252 388.54 583.599 391.44C585.401 395.238 592.458 396.235 594.705 391.67C594.91 391.261 595.167 390.869 595.38 390.469C597.251 386.926 598.182 383.085 599.037 379.218C599.387 377.643 599.754 376.059 600.113 374.483C600.762 376.374 601.275 378.23 601.959 380.036C603.091 383.459 604.977 386.587 607.478 389.191C609.17 390.922 611.428 391.991 613.843 392.206C615.384 392.408 616.951 392.129 618.328 391.408C619.705 390.687 620.824 389.558 621.532 388.178C622.747 385.98 623.815 383.704 624.727 381.365C624.889 380.99 625.06 380.615 625.231 380.223C625.333 380.3 625.368 380.309 625.368 380.334L625.598 381.126C626.677 385.238 628.681 389.051 631.459 392.274C632.254 393.16 633.258 393.834 634.379 394.237C635.501 394.64 636.705 394.759 637.884 394.582C640.028 394.37 640.908 393.56 641.412 391.431C641.754 389.809 641.974 388.164 642.07 386.509C642.583 380.428 642.728 374.304 643.779 368.274C644.753 362.602 646.342 357.203 649.503 352.272L649.759 352.57L649.819 352.638C649.879 357.314 649.306 361.947 648.965 366.597C648.402 371.814 648.205 377.065 648.375 382.31C648.499 385.22 649.075 388.093 650.084 390.827C650.35 391.717 650.925 392.484 651.707 392.99C652.962 393.695 654.442 393.888 655.836 393.528C657.231 393.167 658.43 392.281 659.183 391.057C660.058 389.436 660.746 387.722 661.233 385.947C661.455 385.248 661.694 384.55 661.968 383.707C662.506 384.788 662.925 385.708 663.412 386.585C664.221 388.147 665.577 389.359 667.222 389.992C668.888 390.615 670.702 390.736 672.437 390.339C674.172 389.942 675.751 389.046 676.978 387.761C678.976 385.542 680.588 383.006 681.746 380.257C684.42 374.364 685.949 368.096 687.726 361.904C689.136 356.922 690.691 351.982 692.468 347.111L692.707 346.259L692.886 346.446C692.902 347.076 692.821 347.705 692.647 348.311C692.476 350.364 692.263 352.408 692.143 354.46C691.733 361.384 691.289 368.317 692.143 375.241C692.432 378.645 693.43 381.952 695.073 384.95C695.48 385.694 696.03 386.349 696.693 386.879C697.356 387.408 698.118 387.8 698.935 388.033C700.69 388.537 702.544 388.592 704.326 388.195C705.101 388.047 705.83 387.717 706.453 387.233C707.075 386.749 707.573 386.124 707.906 385.41C708.324 384.558 708.76 383.707 709.153 382.855C709.332 382.472 709.452 382.37 709.871 382.642C711.873 383.943 714.268 384.507 716.642 384.235C719.016 383.962 721.22 382.872 722.874 381.152C723.07 380.947 723.198 380.632 723.557 380.581C723.591 382.797 723.966 384.994 724.668 387.096C725.334 388.919 726.377 390.503 728.316 391.108C731.443 392.13 735.381 391.823 737.936 388.553C738.591 387.743 739.164 386.87 739.645 385.947C740.345 384.558 741.012 383.145 741.738 381.637C742.02 382.404 742.233 383.102 742.532 383.758C743.199 385.24 744.019 386.619 745.651 387.224C748.009 388.076 751.563 388.076 753.835 385.359C754.758 384.245 755.573 383.048 756.27 381.782C757.965 378.443 759.374 374.967 760.482 371.392L763.447 362.824C763.546 362.868 763.631 362.94 763.691 363.03C763.751 363.121 763.785 363.226 763.788 363.335C765.513 370.81 766.656 378.407 767.206 386.057C768.513 404.113 774.083 442.548 753.306 453.041C743.327 458.083 732.101 451.891 728.982 441.637C725.326 429.586 734.578 418.761 744.113 412.595C746.401 411.148 748.781 409.85 751.238 408.712C751.588 408.55 752.092 408.371 752.015 407.911C751.939 407.451 751.435 407.332 751.016 407.255C750.098 407.129 749.164 407.21 748.282 407.494C746.49 408.047 744.749 408.754 743.079 409.606C737.551 412.263 732.391 415.457 728.222 420.039C721.43 427.499 718.653 437.532 723.643 446.866C730.777 460.204 749.41 462.546 761.593 455.213C782.806 442.387 784.361 412.033 779.705 386.628ZM568.332 342.46C568.243 341.285 568.477 340.108 569.007 339.054C569.306 338.415 569.545 338.253 570.015 338.952C571.156 340.739 571.977 342.71 572.441 344.777C572.96 346.698 573.325 348.658 573.535 350.636C573.415 350.824 573.535 351.13 573.278 351.241C571.879 350.208 570.715 348.892 569.862 347.379C569.009 345.865 568.488 344.189 568.332 342.46V342.46ZM623.727 373.197C622.095 378.091 619.776 382.73 616.841 386.977C616.345 387.602 615.803 388.188 615.218 388.732C614.74 389.208 614.441 389.106 614.039 388.646C612.481 386.695 611.362 384.432 610.758 382.012C608.914 375.505 608.073 368.757 608.264 361.998C608.37 354.844 609.027 347.709 610.229 340.655C610.229 340.536 610.28 340.416 610.331 340.203C613.277 342.067 616.493 343.469 619.866 344.36C620.671 344.565 621.486 344.727 622.309 344.845C622.787 344.913 622.967 345.007 622.941 345.56C622.315 354.509 622.601 363.497 623.796 372.388C623.839 372.665 623.816 372.948 623.727 373.214V373.197ZM680.114 366.52C678.157 372.081 676.218 377.643 672.98 382.642C672.314 383.673 671.579 384.661 670.819 385.623C670.366 386.194 670.204 385.998 670.007 385.461C669.287 383.09 668.998 380.609 669.153 378.137C669.546 372.661 670.383 367.406 672.57 362.458C673.315 360.733 674.376 359.162 675.697 357.825C675.755 357.737 675.835 357.665 675.928 357.615C676.021 357.565 676.125 357.539 676.231 357.539C676.337 357.539 676.441 357.565 676.534 357.615C676.627 357.665 676.706 357.737 676.765 357.825C678.225 359.34 679.129 361.303 679.328 363.394C679.37 364.29 679.619 365.165 680.054 365.949C680.119 366.03 680.161 366.125 680.178 366.227C680.194 366.328 680.184 366.432 680.148 366.529L680.114 366.52ZM727.445 359.187C725.275 365.149 723.036 371.051 718.901 376.025C718.104 377.033 717.205 377.958 716.218 378.784C715.675 376.996 715.555 375.107 715.868 373.265C716.606 367.29 718.97 361.629 722.703 356.896C723.237 356.221 723.841 355.604 724.506 355.057C724.561 354.999 724.627 354.953 724.7 354.921C724.774 354.89 724.853 354.874 724.933 354.874C725.013 354.874 725.092 354.89 725.165 354.921C725.239 354.953 725.305 354.999 725.36 355.057C726.395 355.896 727.151 357.027 727.53 358.301C727.626 358.608 727.605 358.938 727.47 359.23L727.445 359.187Z"
              fill="#EF3F7B" id="path4769"></path>
        <path d="M542.992 347.947C549.556 343.016 554.991 336.748 558.934 329.56C562.813 322.397 564.3 314.817 562.711 306.794C561.38 300.03 558.161 293.778 553.424 288.756C542.881 277.42 530.049 272.404 514.577 275.266C506.102 276.833 498.754 280.657 493.158 287.351C489.425 291.814 486.811 296.856 487.084 302.851C487.392 309.665 490.647 314.775 496.815 317.917C498.405 318.694 500.177 319.024 501.941 318.871C503.248 318.828 504.494 318.31 505.444 317.415C505.991 316.895 505.828 316.563 505.256 316.316C504.833 316.087 504.358 315.966 503.876 315.966C503.394 315.966 502.92 316.087 502.496 316.316C501.642 316.819 501.147 316.512 500.549 316.001C499.3 314.987 498.376 313.631 497.892 312.1C496.584 307.748 495.516 303.371 496.354 298.789C497.409 293.212 500.382 288.176 504.76 284.549C512.518 277.812 524.615 274.116 536.602 281.764C542.963 285.761 548.084 291.443 551.39 298.176C556.619 308.736 556.576 319.28 550.844 329.687C547.76 335.266 543.411 339.814 538.704 344.064C538.114 343.553 537.55 343.033 536.995 342.548C532.347 338.792 526.896 337.029 521.087 336.203C520.361 336.1 520.318 335.862 520.352 335.24C520.967 324.901 522.71 314.689 523.923 304.427C524.208 302.483 524.356 300.523 524.368 298.559C524.368 296.915 523.676 296.217 522.052 296.046C521.238 295.923 520.405 296.063 519.676 296.446C518.947 296.83 518.361 297.436 518.003 298.176C516.102 301.549 514.6 305.13 513.526 308.847C511.006 317.364 509.827 326.178 508.981 335.01C508.913 335.751 508.742 336.109 507.93 336.117C507.223 336.156 506.52 336.253 505.828 336.407C502.095 337.071 498.524 338.11 495.508 340.589C491.979 343.314 491.569 347.572 494.44 350.979C495.131 351.807 495.923 352.545 496.798 353.176C499.99 355.404 503.657 356.862 507.511 357.435C507.981 357.52 508.169 357.631 508.195 358.159C508.314 360.552 508.451 362.936 508.673 365.321C509.288 373.482 511.402 381.462 514.91 388.861C516.456 392.256 518.485 395.411 520.933 398.23C524.094 401.636 530.519 402.096 533.842 398.136C534.917 396.912 535.872 395.589 536.696 394.184C541.849 385.103 544.946 375.007 545.769 364.606C546.283 359.305 545.213 353.972 542.693 349.276C542.343 348.654 542.42 348.424 542.992 347.947ZM507.537 354.249C504.778 353.466 502.206 352.376 500.215 350.204C497.652 347.428 497.934 343.842 500.907 341.526C503.147 339.9 505.763 338.866 508.511 338.519C508.511 339.456 508.46 340.367 508.417 341.279C508.221 345.384 508.007 349.489 508.101 353.602C508.101 353.968 508.263 354.462 507.537 354.258V354.249ZM519.592 353.474C519.694 348.688 519.823 343.902 520.07 339.124C520.07 338.766 520.07 338.502 520.609 338.604C526.418 339.66 531.279 342.241 534.765 347.121C530.396 350.34 525.426 352.656 520.147 353.934C519.669 354.062 519.583 353.943 519.592 353.474V353.474ZM534.116 386.485C533.077 389.046 531.864 391.533 530.485 393.929C529.822 395.071 529.034 396.137 528.135 397.105C527.238 398.059 527.221 398.059 526.427 396.961C525.211 395.111 524.254 393.106 523.582 390.999C521.742 385.556 520.594 379.906 520.164 374.178C519.694 368.89 519.489 363.584 519.481 358.269C519.481 357.716 519.575 357.511 520.181 357.418C525.936 356.532 531.507 354.711 536.67 352.027C537.029 351.839 537.251 351.694 537.456 352.24C539.122 356.439 539.865 360.947 539.635 365.457C538.908 372.71 537.058 379.806 534.15 386.494L534.116 386.485Z"
              fill="#EF3F7B" id="path7637"></path>
        <path d="M554.679 343.389C553.876 343.79 553.885 344.454 554.679 344.948C555.46 345.336 556.316 345.554 557.188 345.586C558.06 345.618 558.929 345.465 559.737 345.135C560.591 344.667 560.66 344.02 559.831 343.543C559.062 343.066 558.181 342.801 557.276 342.774C556.371 342.747 555.475 342.959 554.679 343.389V343.389Z"
              fill="#EF3F7B" id="path5373"></path>
        <path d="M737.398 283.492C736.788 283.238 736.114 283.176 735.467 283.313C734.562 283.449 733.656 283.636 732.682 283.815C732.682 283.372 732.682 282.964 732.75 282.563C733.166 277.698 733.283 272.811 733.101 267.932C733.039 266.21 732.81 264.499 732.417 262.822C732.322 262.18 732.01 261.59 731.533 261.149C731.057 260.708 730.443 260.442 729.794 260.394C728.299 260.25 726.813 260.198 725.839 261.689C724.985 262.941 724.13 264.167 723.327 265.428C720.247 270.43 716.653 275.099 712.605 279.361C711.872 280.134 711.062 280.83 710.187 281.439C710.187 280.962 710.239 280.587 710.29 280.264C710.874 277.18 711.859 274.185 713.22 271.355C714.929 267.514 716.971 263.844 718.816 260.071C719.38 258.921 719.175 258.418 717.962 258.095C717.14 257.826 716.264 257.763 715.412 257.912C714.559 258.06 713.757 258.416 713.075 258.947C711.747 260.086 710.596 261.415 709.658 262.89C707.105 266.505 705.034 270.436 703.498 274.583C703.284 275.188 703.062 275.264 702.515 275C701.853 274.677 701.164 274.412 700.456 274.208C699.773 274.021 699.85 273.774 700.166 273.272C702.062 270.355 702.808 266.842 702.259 263.409C701.789 260.36 700.499 257.822 697.372 256.698C695.119 255.946 692.675 255.991 690.452 256.826C686.906 258.001 684.275 260.454 681.712 263.009C681.712 263.247 681.422 263.264 681.37 263.179C681.234 262.932 681.43 262.711 681.558 262.498C681.572 262.257 681.606 262.018 681.661 261.783C682.366 259.293 682.88 256.753 683.199 254.186C683.31 252.712 682.66 252.15 681.174 252.312C680.792 252.347 680.421 252.459 680.085 252.642C679.748 252.825 679.453 253.075 679.217 253.377C678.767 253.959 678.375 254.583 678.047 255.242C676.977 257.389 676.074 259.616 675.347 261.902C674.632 264.075 674.03 266.284 673.544 268.519C673.476 268.809 673.544 269.209 672.981 269.115C672.417 269.022 672.767 268.63 672.801 268.426C673.034 267.165 673.131 265.883 673.092 264.602C673.146 261.557 672.341 258.559 670.768 255.949C670.153 254.956 669.291 254.139 668.265 253.578C667.24 253.017 666.086 252.73 664.916 252.746C662.656 252.74 660.451 253.44 658.611 254.748C655.832 256.693 653.502 259.208 651.776 262.123C651.639 262.336 651.494 262.549 651.22 262.975C651.22 262.123 651.28 261.484 651.306 260.863C651.386 259.063 651.465 257.266 651.545 255.472C651.578 255.283 651.559 255.089 651.489 254.911C651.42 254.732 651.304 254.576 651.152 254.458C650.309 253.953 649.305 253.784 648.342 253.984C647.379 254.185 646.528 254.74 645.958 255.54C645.156 257.126 644.609 258.827 644.334 260.582C643.41 265.519 643.058 270.545 643.284 275.563C643.329 276.052 643.3 276.546 643.198 277.027C642.56 279.538 641.649 281.971 640.481 284.284C640.124 285.018 639.664 285.697 639.114 286.302C639.063 285.808 639.063 285.45 638.995 285.067C637.79 278.986 637.927 272.863 638.38 266.731C638.57 264.858 638.644 262.975 638.602 261.093C638.622 260.82 638.572 260.546 638.457 260.297C638.342 260.048 638.165 259.833 637.944 259.67C637.277 259.323 636.521 259.179 635.772 259.256C635.023 259.333 634.314 259.628 633.732 260.105C633.425 260.445 633.279 260.403 632.98 260.105C632.477 259.641 631.899 259.264 631.272 258.989C629.583 258.329 627.742 258.152 625.958 258.479C624.174 258.805 622.517 259.622 621.173 260.837C619.936 261.976 618.937 263.348 618.234 264.874C616.218 269.354 615.482 274.303 616.107 279.174C616.296 280.912 616.88 282.584 617.816 284.062C619.524 286.796 624.992 286.941 626.795 284.062C627.711 282.639 628.503 281.14 629.161 279.582C629.52 278.731 629.862 277.828 630.204 276.951C630.239 278.679 630.391 280.403 630.656 282.112C630.934 284.296 631.96 286.318 633.561 287.835C635.902 289.905 641.071 290.032 643.395 286.932C643.497 286.796 643.548 286.575 643.822 286.6C643.865 286.924 643.924 287.247 643.95 287.571C644.375 292.442 645.129 297.279 646.205 302.049C647.12 306.112 647.914 310.208 650.033 313.905C650.331 314.603 650.88 315.165 651.573 315.48C652.265 315.795 653.051 315.841 653.775 315.608C654.121 315.578 654.443 315.42 654.677 315.164C654.911 314.908 655.041 314.574 655.039 314.228C655.17 312.707 655.17 311.177 655.039 309.655C654.288 304.17 653.331 298.728 652.656 293.235C652.212 289.47 651.716 285.714 651.502 281.925C651.682 281.541 651.332 281.073 651.707 280.724C652.818 283.083 654.775 284.13 657.286 284.224C660.704 284.42 663.566 282.998 666.052 280.817C668.88 278.178 670.953 274.836 672.058 271.134C672.178 270.785 672.271 270.538 672.716 270.623C673.16 270.708 672.946 271.083 672.904 271.313C671.904 276.951 671.127 282.614 670.469 288.304C669.615 295.364 669.093 302.441 668.512 309.553C668.332 310.64 668.426 311.755 668.786 312.797C669.358 314.083 671.605 315.148 672.981 314.433C674.689 313.53 674.305 310.464 674.501 308.556C674.723 306.478 674.946 304.409 675.193 302.339C675.441 300.269 675.757 298.081 676.048 295.892C676.295 293.907 676.535 291.915 676.774 289.93C676.987 288.159 677.193 286.379 677.423 284.607C677.722 282.274 678.047 279.94 678.363 277.598C678.396 277.497 678.445 277.402 678.508 277.317L678.645 277.138C678.622 276.843 678.685 276.548 678.824 276.286C679.158 274.302 679.491 272.318 679.841 270.325C679.876 270.138 679.952 269.96 680.063 269.805C682.694 266.143 685.411 262.549 689.162 259.909C690.312 259.07 691.594 258.428 692.955 258.01C693.571 257.754 694.263 257.748 694.884 257.993C695.505 258.238 696.005 258.714 696.279 259.321C697.114 260.839 697.465 262.573 697.287 264.295C697.064 267.047 696.229 269.715 694.843 272.105C694.771 272.274 694.638 272.409 694.47 272.485C694.303 272.561 694.113 272.571 693.938 272.514C690.349 272.096 686.787 272.054 683.361 273.442C681.602 274.079 680.087 275.25 679.029 276.789L678.85 277.266L678.696 277.777C678.355 278.79 678.293 279.875 678.517 280.92C678.691 281.314 678.945 281.669 679.263 281.961C679.58 282.254 679.954 282.48 680.362 282.623C682.066 283.343 683.952 283.521 685.762 283.134C690.057 282.285 694.003 280.183 697.099 277.096C697.364 276.849 697.543 276.61 697.953 276.789C699.217 277.291 700.516 277.751 701.806 278.194C701.892 278.207 701.974 278.239 702.046 278.288C702.118 278.337 702.177 278.402 702.22 278.478C702.263 278.553 702.288 278.638 702.293 278.724C702.299 278.811 702.284 278.898 702.25 278.978C702.094 279.82 702.063 280.681 702.156 281.533C702.147 282.533 702.48 283.507 703.102 284.292C703.723 285.077 704.596 285.627 705.574 285.851C706.854 286.246 708.206 286.357 709.535 286.176C710.863 285.995 712.136 285.527 713.263 284.803C714.965 283.702 716.482 282.34 717.757 280.766C720.379 277.543 722.807 274.167 725.027 270.657C725.027 270.478 725.121 270.359 725.326 270.189C725.447 270.574 725.417 270.991 725.241 271.355C724.711 276.261 724.173 281.167 723.66 286.072C723.618 286.524 723.344 286.583 723.045 286.685C719.767 287.834 716.563 289.182 713.451 290.722C708.826 292.868 704.597 295.776 700.943 299.324C698.98 301.164 697.481 303.44 696.569 305.967C695.604 308.982 695.715 311.827 697.91 314.33C699.01 315.63 700.412 316.642 701.994 317.277C708.684 319.832 715.091 319.279 721.089 315.31C725.198 312.585 727.471 308.497 728.974 303.957C730.767 298.397 731.897 292.645 732.34 286.822C732.319 286.585 732.391 286.349 732.541 286.165C732.691 285.98 732.907 285.862 733.143 285.834C733.998 285.629 734.852 285.357 735.707 285.076C736.295 284.909 736.867 284.689 737.415 284.42C738.005 284.139 737.953 283.756 737.398 283.492ZM630.93 267.208C629.257 271.752 627.164 276.132 624.676 280.289C624.266 280.954 623.77 281.567 623.224 282.333C622.615 280.047 622.424 277.67 622.66 275.316C622.798 271.853 623.55 268.442 624.881 265.24C625.462 263.823 626.335 262.544 627.444 261.484C627.854 261.11 628.136 261.144 628.563 261.484C630.204 262.762 630.665 264.602 631.067 266.484C631.087 266.733 631.04 266.983 630.93 267.208V267.208ZM658.799 281.081C657.688 281.882 657.508 281.848 656.577 280.834C656.042 280.25 655.639 279.558 655.395 278.805C655.15 278.052 655.071 277.256 655.162 276.47C655.252 275.684 655.511 274.926 655.92 274.248C656.329 273.57 656.88 272.987 657.534 272.539C658.17 272.113 658.863 271.777 659.593 271.543C661.771 270.922 664.026 270.607 666.291 270.606C664.454 274.685 662.429 278.458 658.799 281.081V281.081ZM668.196 262.805C668.11 264.658 667.786 266.493 667.231 268.264C667.201 268.461 667.095 268.638 666.935 268.758C666.775 268.877 666.575 268.929 666.377 268.903C663.748 268.858 661.124 269.127 658.559 269.703C656.766 270.115 655.095 270.94 653.681 272.113C652.518 273.143 651.713 274.515 651.383 276.031C651.337 276.002 651.294 275.967 651.255 275.929V275.929L651.195 275.878V275.827L651.144 275.758C651.131 275.608 651.131 275.457 651.144 275.307C651.075 274.055 651.041 272.803 650.998 271.551C652.408 266.509 654.416 261.766 658.064 257.925C659.346 256.539 660.883 255.412 662.592 254.603C664.582 253.692 665.761 254.066 666.787 256C667.834 258.109 668.305 260.456 668.154 262.805H668.196ZM688.068 279.327C687.023 280.029 685.895 280.601 684.711 281.03C683.327 281.507 682.336 280.681 682.549 279.208C682.642 278.599 682.862 278.016 683.196 277.498C683.531 276.98 683.971 276.538 684.489 276.201C686.048 275.11 687.949 274.611 689.845 274.796C690.799 274.878 691.746 275.02 692.682 275.222C691.369 276.835 689.799 278.222 688.034 279.327H688.068ZM721.96 297.212C721.137 301.249 719.72 305.144 717.757 308.769C716.484 310.975 714.697 312.842 712.545 314.211C711.521 314.963 710.277 315.357 709.005 315.331C707.733 315.305 706.506 314.86 705.514 314.066C703.105 312.363 701.951 310.089 702.567 307.074C703.224 303.846 705.181 301.411 707.436 299.188C711.173 295.692 715.459 292.83 720.123 290.714C721.123 290.228 722.148 289.777 723.327 289.232C723.03 291.908 722.562 294.562 721.926 297.178L721.96 297.212Z"
              fill="#333333" id="path8895"></path>
        <path d="M615.005 300.73C614.595 296.719 614.151 292.708 613.724 288.688C613.057 282.232 612.322 275.785 611.383 269.363C610.392 262.678 609.178 256.026 607.897 249.383C607.508 246.769 606.855 244.201 605.949 241.718C605.291 240.134 604.48 239.666 602.745 239.793C601.336 239.896 600.814 240.39 600.362 242.05C600.285 242.34 600.216 242.629 600.157 242.902C599.375 247.536 599.22 252.254 599.695 256.929C600.387 265.573 601.464 274.184 602.327 282.811C602.354 282.912 602.36 283.018 602.346 283.122C602.332 283.225 602.297 283.325 602.244 283.416C602.19 283.506 602.12 283.585 602.036 283.648C601.952 283.711 601.856 283.756 601.754 283.782C599.191 284.855 596.628 285.937 594.065 287.061C588.999 289.301 583.813 291.243 579.14 294.351C578.738 294.624 578.644 294.436 578.516 294.104C578.038 292.886 577.568 291.668 577.072 290.451C572.319 279.023 568.175 267.353 564.659 255.49C563.778 252.226 562.712 249.016 561.463 245.874C561.36 245.548 561.16 245.261 560.89 245.05C560.62 244.839 560.293 244.714 559.951 244.69C558.456 244.529 557.764 245.116 557.687 246.649C557.646 249.434 557.959 252.213 558.618 254.919C560.899 266.05 564.795 276.662 569.34 287.044C572.759 294.598 576.574 301.966 580.772 309.119C581.093 309.783 581.498 310.404 581.976 310.967C582.243 311.205 582.574 311.358 582.929 311.408C583.283 311.458 583.644 311.403 583.967 311.248C584.616 310.831 584.163 310.294 584.018 309.86C582.685 305.852 581.33 301.852 579.951 297.86C579.798 297.409 579.755 297.187 580.327 297.094C581.001 296.966 581.649 296.734 582.25 296.404C583.856 295.552 585.453 294.752 587.068 293.942C591.955 291.49 597.072 289.548 602.019 287.248C602.694 286.933 602.814 287.112 602.873 287.742C603.249 291.217 603.779 294.658 604.437 298.09C605.175 301.756 606.468 305.288 608.273 308.566C608.451 308.936 608.702 309.268 609.01 309.541C609.318 309.814 609.677 310.024 610.067 310.158C611.349 310.593 612.74 310.593 614.023 310.158C614.409 310.054 614.749 309.823 614.989 309.504C615.229 309.185 615.355 308.794 615.347 308.395C615.407 307.194 615.304 305.994 615.261 304.665C615.219 303.336 615.142 302.05 615.005 300.73Z"
              fill="#333333" id="path8074"></path>
        <path d="M477.566 233.696C475.508 233.34 473.392 233.583 471.47 234.398C469.548 235.212 467.903 236.562 466.733 238.286C465.571 235.833 464.17 233.781 463.008 231.328C465.466 230.689 468.031 230.569 470.538 230.977C473.045 231.385 475.439 232.311 477.566 233.696Z"
              fill="#7AD0F0" id="path6032"></path>
        <path d="M477.916 234.121C476.967 231.861 475.569 229.816 473.807 228.108C472.046 226.4 469.956 225.065 467.664 224.182C468.758 222.921 469.723 221.26 470.808 220C474.892 222.172 478.326 229.522 477.916 234.121Z"
              fill="#EFC94E" id="path6677"></path>
        <path d="M488.81 234.043C487.179 232.93 485.256 232.322 483.28 232.294C481.304 232.267 479.364 232.822 477.703 233.89C478.233 231.897 480.044 230.134 481.838 229.112C483.654 228.085 485.803 227.813 487.819 228.354C488.152 229.981 488.468 232.417 488.81 234.043Z"
              fill="#7AD0F0" id="path7831"></path>
        <path d="M476.875 232.75C480.059 234.737 483.24 236.764 486.418 238.831C488.981 240.494 491.544 242.198 494.107 243.941C497.775 246.422 501.412 248.952 505.017 251.529C508.115 253.744 511.18 255.998 514.21 258.292C517.741 260.966 521.21 263.68 524.616 266.433C520.763 277.718 506.828 286.414 494.885 286.95C493.825 282.902 492.706 278.871 491.527 274.856C490.103 269.974 488.591 265.113 486.99 260.276C486.022 257.335 485.02 254.402 483.983 251.478C482.781 248.072 481.534 244.665 480.241 241.258C479.142 238.414 478.02 235.578 476.875 232.75Z"
              fill="#7AD0F0" id="path1290"></path>
        <path d="M486.418 238.83C488.981 240.494 491.544 242.197 494.107 243.94L491.98 243.548C491.749 245.763 491.296 247.653 491.057 249.868L485 248.164L483.974 251.443C482.773 248.037 481.525 244.63 480.232 241.223C482.385 240.866 484.504 241.147 486.674 240.738C486.614 240.133 486.52 239.477 486.418 238.83Z"
              fill="#EF3F7B" id="path3252"></path>
        <path d="M504.991 251.502C508.089 253.716 511.153 255.97 514.184 258.264C513.825 261.092 513.449 263.911 513.158 266.781C509.912 266.117 506.64 265.299 503.393 264.626C503.239 267.982 502.94 271.082 502.795 274.437L493.397 270.63L491.509 274.889C490.085 270.006 488.573 265.146 486.973 260.308C487.331 259.516 487.69 258.716 488.032 257.907C490.074 258.911 492.09 260.061 494.141 261.066C494.431 258.239 494.542 255.624 494.824 252.805C498.19 253.733 501.573 254.696 504.94 255.624C504.957 254.202 504.974 252.848 504.991 251.502Z"
              fill="#EF3F7B" id="path7995"></path>
    </g>
    <g clip-path="url(#clip1)" id="g1527" transform="matrix(1 0 0 1 0 0)" inkscape:transform-center-x="NaN"
       inkscape:transform-center-y="NaN">
        <path d="M112.412 461.01C66.1051 463.098 50.0183 468.4 50.6238 481.817L51.7985 490.618C57.878 484.732 63.5619 477.717 68.7533 484.772C73.6904 490.393 65.0273 505.983 75.7007 509.007C97.0961 516.228 92.377 489.55 96.4179 475.342C98.5978 471.738 104.33 469.142 105.658 472.589C110.805 482.878 106.764 497.089 115.347 506.052C120.191 509.342 128.143 504.31 130.283 499.537C133.367 490.046 122.379 480.023 129.015 471.536C130.13 470.327 133.69 471.327 134.909 472.439C139.402 478.56 134.546 487.945 142.983 490.179C143.79 497.178 145.151 504.431 145.857 511.394C147.605 511.547 149.369 511.712 151.158 511.902L151.412 504.612L152.365 477.241C152.365 477.241 158.711 458.921 112.412 461.01ZM143.847 490.356L143.516 490.288L143.847 490.356ZM146.269 490.63C145.91 490.63 145.567 490.586 145.236 490.554C145.579 490.598 145.918 490.598 146.277 490.63H146.269ZM144.84 490.51L144.315 490.441L144.84 490.51Z"
              fill="#FFB808" id="path6833"></path>
        <path d="M145.387 507.374C144.644 501.665 143.639 495.835 142.993 490.166C134.548 487.941 139.404 478.555 134.919 472.427C133.708 471.314 130.14 470.302 129.026 471.524C122.385 479.991 133.377 490.029 130.293 499.524C128.166 504.298 120.201 509.333 115.357 506.039C106.758 497.077 110.795 482.865 105.668 472.576C104.34 469.129 98.6078 471.726 96.4279 475.33C92.3911 489.542 97.1021 516.215 75.7108 508.995C65.0374 505.971 73.6924 490.38 68.7634 484.76C63.5679 477.688 57.8639 484.72 51.8086 490.606L55.3974 517.513L56.5761 517.207L55.3974 517.538L56.1644 523.738L57.0282 530.754L60.3627 557.766C60.3627 557.766 97.3968 572.901 144.063 556.044C144.579 540.059 142.274 523.521 145.302 508.027C145.338 507.805 145.355 507.583 145.387 507.374Z"
              fill="#FFD41D" id="path4264"></path>
        <path d="M144.941 511.306L145.877 511.383C145.744 510.056 145.571 508.718 145.397 507.371C145.361 507.585 145.34 507.802 145.3 508.012C142.272 523.51 144.578 540.048 144.061 556.03C144.642 555.82 145.215 555.626 145.793 555.409C147.222 554.868 148.663 554.308 150.112 553.707L150.827 525.542L151.012 518.172L151.17 511.887C149.067 511.673 147.004 511.483 144.941 511.306Z"
              fill="#FFB808" id="path2845"></path>
        <path d="M107.378 418.197C103.724 422.471 99.6682 426.386 95.2676 429.889L95.4533 444.186C99.9382 442.21 104.383 439.593 108.186 436.001L107.378 418.197Z"
              fill="#2A4174" id="path4823"></path>
        <path d="M95.4473 444.178L95.637 458.632C100.534 456.616 104.99 453.238 108.765 448.871L108.179 435.994C104.381 439.586 99.9362 442.219 95.4473 444.178Z"
              fill="#6CADEF" id="path8402"></path>
        <path d="M95.6548 459.785L109.235 459.245L108.767 448.871C104.992 453.237 100.535 456.628 95.6387 458.632L95.6548 459.785Z"
              fill="#2A4174" id="path8827"></path>
        <path d="M107.349 417.548C104.737 415.44 102.376 414.972 100.442 415.214C98.3841 415.535 96.4995 416.555 95.1055 418.101L95.2589 429.881C99.6595 426.378 103.715 422.463 107.369 418.19L107.349 417.548Z"
              fill="#6CADEF" id="path3367"></path>
        <path opacity="0.5"
              d="M102.226 419.64C102.226 419.64 101.604 449.769 102.226 453.426C102.847 457.083 107.037 458.748 107.231 454.547C107.425 450.346 106.678 421.656 105.968 419.814C105.257 417.971 102.278 416.79 102.226 419.64Z"
              fill="#1E3866" id="path7288"></path>
        <path d="M150.123 478.543C149.998 477.997 149.814 477.466 149.574 476.959C149.784 477.499 149.97 478.027 150.123 478.543Z"
              fill="#FF5284" id="path6453"></path>
        <path d="M138.897 482.777C138.732 482.765 138.567 482.796 138.418 482.867C138.269 482.937 138.14 483.045 138.045 483.18C138.776 485.3 140.184 486.845 142.611 487.119C147.406 487.655 149.284 482.611 148.827 480.922C148.545 479.866 148.02 476.455 148.149 475.253C147.265 474.62 146.062 474.274 144.371 474.35C145.747 478.967 143.519 481.402 138.897 482.777Z"
              fill="#FF5284" id="path5776"></path>
        <path d="M124.188 493.962C121.903 495.236 117.075 491.946 115.956 493.155C115.83 493.365 115.715 493.582 115.613 493.805C117.813 497.836 121.148 500.433 126.186 499.356C133.363 497.816 134.159 490.152 130.929 486.293C127.7 482.435 127.344 478.827 128.814 473.231C129.217 471.691 130.102 470.812 131.155 470.465C130.832 470.343 130.487 470.288 130.142 470.304C113.627 467.554 130.881 486.648 124.188 493.962Z"
              fill="#FF4080" id="path5492"></path>
        <path d="M95.0937 471.893C87.238 479.263 88.873 489.713 81.0697 498.26C77.8402 500.909 79.9919 503.32 83.2415 505.683C84.0886 505.759 84.9403 505.769 85.7888 505.711C93.7818 505.159 96.2846 497.244 95.9899 490.568C95.7114 484.351 94.5245 476.36 101.125 473.921C99.4172 471.534 97.3867 470.377 95.0937 471.893Z"
              fill="#FF4080" id="path9323"></path>
        <path d="M59.0971 478.193C57.9829 479.403 55.698 480.685 54.5839 481.906C50.2281 489.115 55.48 501.738 42.7357 504.653C41.9929 504.686 41.3188 506.129 41.2461 507.762C43.7126 509.645 47.2691 510.398 50.8377 509.741C59.1697 508.225 57.2603 495.534 57.2603 495.534C58.5642 487.47 59.6299 480.249 64.8778 477.992C63.2873 477.447 61.3658 477.435 59.0971 478.193Z"
              fill="#FF4080" id="path7387"></path>
        <path d="M157.003 494.825C155.36 484.375 155.997 472.651 148.618 464.809C127.655 441.203 94.4112 456.745 67.8083 463.777C60.4895 465.958 50.9423 467.502 44.7296 462.938C42.6466 465.877 42.7112 469.671 43.5993 474.795C44.9557 482.536 45.4926 484.439 39.8491 494.801C36.6196 500.723 37.9558 505.255 41.2458 507.767C41.3144 506.134 41.9926 504.69 42.7354 504.658C55.4798 501.743 50.2278 489.12 54.5836 481.911C55.6977 480.702 57.9826 479.42 59.0968 478.198C61.3695 477.44 63.2911 477.456 64.8775 477.997C65.6565 477.665 66.4789 477.446 67.3198 477.347C74.7275 476.44 74.3884 481.609 74.0735 491.535C73.795 500.348 76.9437 505.09 83.2412 505.666C80.0117 503.307 77.848 500.897 81.0694 498.244C88.8766 489.709 87.2336 479.262 95.0934 471.893C97.3863 470.377 99.4169 471.53 101.12 473.908C101.623 473.724 102.138 473.578 102.662 473.469C110.986 471.759 111.374 480.323 113.223 487.487C113.76 489.689 114.562 491.817 115.613 493.825C115.714 493.602 115.829 493.385 115.956 493.176C117.07 491.966 121.902 495.248 124.187 493.982C130.88 486.665 113.627 467.571 130.137 470.332C130.483 470.317 130.827 470.372 131.151 470.494C133.928 469.534 137.908 472.163 137.521 475.916C137.258 478.476 137.331 481.109 138.045 483.173C138.141 483.039 138.269 482.931 138.418 482.86C138.568 482.79 138.733 482.758 138.897 482.77C143.515 481.395 145.76 478.956 144.371 474.34C146.063 474.263 147.266 474.61 148.15 475.243C148.243 474.513 148.586 474.594 149.389 476.497C149.454 476.65 149.51 476.799 149.571 476.952C149.811 477.459 149.995 477.99 150.12 478.537C150.57 479.998 150.738 481.532 150.612 483.056C150.612 483.173 150.612 483.294 150.612 483.415C150.612 483.294 150.612 483.177 150.612 483.056C150.382 485.62 149.252 488.273 147.011 491.483C143.951 495.861 146.652 502.074 150.875 504.489C151.109 504.451 151.344 504.425 151.581 504.412C154.98 501.929 158.306 498.26 157.003 494.825Z"
              fill="#FF5284" id="path6452"></path>
        <path d="M160.727 491.06C158.156 484.883 156.255 476.578 155.641 467.273C155.027 457.968 157.635 456.504 150.845 454.142C144.055 451.779 111.147 449.88 80.164 453.105C57.9411 455.428 48.2729 457.943 44.7285 462.923C50.9412 467.486 60.4722 465.942 67.8072 463.761C94.4101 456.734 127.654 441.204 148.617 464.797C155.996 472.647 155.354 484.367 157.001 494.813C158.326 498.26 154.983 501.917 151.58 504.409C151.343 504.422 151.107 504.447 150.874 504.485C152.307 505.355 154.008 505.678 155.661 505.392C162.096 504.159 163.311 497.24 160.727 491.06Z"
              fill="#FF4080" id="path2194"></path>
        <path d="M69.6162 550.268C69.5334 550.272 69.4507 550.258 69.3739 550.226C69.2972 550.195 69.2283 550.147 69.1721 550.086C69.0693 549.975 69.0146 549.828 69.0199 549.677C69.0252 549.526 69.0901 549.383 69.2004 549.28L73.871 544.913C73.9251 544.858 73.9898 544.814 74.0614 544.784C74.1329 544.755 74.2098 544.74 74.2873 544.74C74.3647 544.741 74.4413 544.757 74.5123 544.789C74.5832 544.82 74.6471 544.865 74.7001 544.921C74.7531 544.978 74.7941 545.044 74.8206 545.117C74.8471 545.19 74.8585 545.267 74.8542 545.344C74.8499 545.422 74.83 545.497 74.7956 545.567C74.7612 545.636 74.7131 545.698 74.6542 545.748L69.9795 550.118C69.8804 550.21 69.7513 550.263 69.6162 550.268V550.268Z"
              fill="white" id="path2070"></path>
        <path d="M74.6378 553.679C74.5356 553.682 74.4344 553.658 74.3445 553.609C74.2547 553.561 74.1794 553.489 74.1265 553.402C74.0735 553.314 74.0447 553.214 74.043 553.112C74.0414 553.01 74.0669 552.909 74.117 552.82L77.0437 547.825C77.1239 547.702 77.2487 547.614 77.392 547.58C77.5353 547.546 77.6863 547.568 77.8135 547.643C77.9407 547.717 78.0345 547.837 78.0753 547.978C78.1161 548.12 78.1009 548.271 78.0328 548.402L75.106 553.397C75.0577 553.479 74.9896 553.548 74.9078 553.597C74.826 553.647 74.7332 553.675 74.6378 553.679V553.679Z"
              fill="white" id="path5590"></path>
        <path d="M80.1416 555.026C80.0921 555.034 80.0417 555.034 79.9922 555.026C79.844 554.994 79.7149 554.903 79.6332 554.776C79.5515 554.648 79.5238 554.493 79.5562 554.345L80.4524 550.269C80.4912 550.127 80.5831 550.006 80.7089 549.93C80.8348 549.854 80.985 549.829 81.1286 549.861C81.2721 549.893 81.3981 549.978 81.4804 550.1C81.5626 550.221 81.5949 550.37 81.5706 550.515L80.6744 554.583C80.647 554.705 80.5798 554.815 80.4835 554.895C80.3871 554.975 80.2669 555.021 80.1416 555.026V555.026Z"
              fill="white" id="path350"></path>
        <path d="M140.642 547.071C140.507 547.077 140.373 547.034 140.267 546.95L135.217 543.011C135.097 542.917 135.019 542.78 135 542.629C134.982 542.478 135.024 542.326 135.118 542.207C135.211 542.087 135.349 542.009 135.5 541.991C135.651 541.972 135.803 542.014 135.923 542.108L140.969 546.039C141.06 546.111 141.127 546.209 141.161 546.321C141.195 546.432 141.194 546.551 141.159 546.662C141.123 546.772 141.055 546.87 140.962 546.941C140.87 547.011 140.758 547.053 140.642 547.059V547.071Z"
              fill="white" id="path3876"></path>
        <path d="M135.946 550.914C135.851 550.919 135.756 550.9 135.67 550.858C135.584 550.816 135.51 550.754 135.454 550.677L132.091 545.968C132.008 545.844 131.977 545.693 132.003 545.546C132.03 545.4 132.113 545.269 132.234 545.183C132.356 545.096 132.506 545.06 132.653 545.083C132.801 545.105 132.934 545.184 133.024 545.302L136.387 550.015C136.431 550.077 136.464 550.147 136.481 550.221C136.499 550.295 136.502 550.371 136.489 550.446C136.477 550.522 136.45 550.593 136.409 550.658C136.369 550.722 136.316 550.778 136.253 550.822C136.162 550.881 136.055 550.913 135.946 550.914V550.914Z"
              fill="white" id="path2893"></path>
        <path d="M130.584 552.752C130.458 552.757 130.333 552.721 130.23 552.648C130.127 552.575 130.052 552.469 130.015 552.349L128.755 548.377C128.733 548.306 128.724 548.23 128.731 548.155C128.737 548.08 128.758 548.007 128.793 547.94C128.828 547.873 128.875 547.814 128.933 547.766C128.99 547.717 129.057 547.68 129.129 547.658C129.201 547.635 129.276 547.627 129.351 547.633C129.426 547.639 129.5 547.661 129.566 547.695C129.633 547.73 129.693 547.777 129.741 547.835C129.79 547.892 129.827 547.959 129.849 548.031L131.105 552.002C131.128 552.073 131.137 552.149 131.131 552.224C131.124 552.298 131.104 552.371 131.069 552.438C131.034 552.505 130.987 552.564 130.929 552.612C130.872 552.661 130.805 552.697 130.733 552.72C130.686 552.738 130.635 552.749 130.584 552.752V552.752Z"
              fill="white" id="path8837"></path>
        <path d="M58.5969 463.305C58.7839 463.757 58.785 464.265 58.5998 464.718C58.4147 465.17 58.0583 465.532 57.6079 465.724L50.4909 468.732C50.0385 468.921 49.5295 468.923 49.0755 468.738C48.6214 468.553 48.2594 468.195 48.0688 467.744V467.744C47.8817 467.292 47.8807 466.785 48.0658 466.332C48.251 465.879 48.6074 465.517 49.0578 465.325L56.1748 462.317C56.6275 462.132 57.1352 462.131 57.5883 462.316C58.0415 462.501 58.4037 462.856 58.5969 463.305V463.305Z"
              fill="#73E0AF" id="path8158"></path>
        <path d="M89.2514 476.105C89.0055 476.532 88.5999 476.844 88.1238 476.973C87.6477 477.101 87.14 477.036 86.7122 476.79L80.0151 472.948C79.5876 472.703 79.2752 472.298 79.1465 471.822C79.0178 471.347 79.0834 470.84 79.3288 470.412V470.412C79.5747 469.985 79.9803 469.673 80.4564 469.545C80.9325 469.416 81.4402 469.482 81.868 469.727L88.5651 473.569C88.7772 473.69 88.9632 473.852 89.1126 474.045C89.2619 474.239 89.3716 474.459 89.4353 474.695C89.4991 474.93 89.5156 475.176 89.4841 475.418C89.4525 475.66 89.3734 475.894 89.2514 476.105Z"
              fill="#73E0AF" id="path7899"></path>
        <path d="M103.957 459.241C104.163 459.689 104.182 460.2 104.01 460.662C103.838 461.124 103.49 461.499 103.041 461.704L96.021 464.93C95.7974 465.031 95.556 465.086 95.3108 465.094C95.0656 465.101 94.8213 465.06 94.5921 464.972C94.3628 464.885 94.1532 464.753 93.9751 464.585C93.797 464.416 93.6541 464.214 93.5545 463.99V463.99C93.3487 463.543 93.3293 463.032 93.5003 462.57C93.6714 462.108 94.019 461.733 94.4668 461.527L101.491 458.302C101.94 458.096 102.451 458.078 102.914 458.249C103.376 458.421 103.752 458.769 103.957 459.217V459.241Z"
              fill="#B894EA" id="path137"></path>
        <path d="M71.2593 459.102C71.6728 459.37 71.9628 459.791 72.0657 460.273C72.1686 460.754 72.0761 461.257 71.8083 461.67L67.606 468.145C67.4734 468.35 67.3016 468.527 67.1005 468.665C66.8995 468.804 66.673 468.901 66.4341 468.952C66.1953 469.003 65.9487 469.007 65.7085 468.962C65.4683 468.918 65.2393 468.827 65.0345 468.694V468.694C64.8294 468.561 64.6524 468.39 64.5138 468.189C64.3751 467.988 64.2775 467.762 64.2265 467.523C64.1755 467.285 64.1721 467.039 64.2166 466.799C64.261 466.559 64.3524 466.33 64.4855 466.125L68.6878 459.651C68.8204 459.446 68.9922 459.269 69.1933 459.131C69.3943 458.992 69.6208 458.895 69.8597 458.844C70.0985 458.793 70.3451 458.789 70.5853 458.834C70.8255 458.878 71.0545 458.969 71.2593 459.102V459.102Z"
              fill="#B894EA" id="path717"></path>
        <path d="M147.673 467.901C147.397 468.309 146.969 468.59 146.484 468.683C146 468.776 145.498 468.673 145.09 468.397L138.695 464.071C138.287 463.795 138.005 463.368 137.912 462.884C137.819 462.4 137.922 461.899 138.199 461.491V461.491C138.336 461.289 138.511 461.116 138.714 460.982C138.918 460.848 139.146 460.755 139.386 460.709C139.625 460.663 139.872 460.665 140.111 460.714C140.35 460.763 140.576 460.858 140.778 460.995L147.177 465.321C147.379 465.458 147.553 465.633 147.688 465.837C147.822 466.04 147.915 466.268 147.962 466.508C148.008 466.748 148.006 466.994 147.957 467.233C147.907 467.473 147.811 467.699 147.673 467.901V467.901Z"
              fill="#B894EA" id="path8355"></path>
        <path d="M121.288 467.247C120.89 467.538 120.392 467.659 119.905 467.583C119.417 467.508 118.98 467.242 118.689 466.844L114.155 460.595C113.866 460.198 113.745 459.702 113.821 459.216C113.897 458.73 114.162 458.294 114.559 458.003C114.958 457.713 115.455 457.593 115.942 457.669C116.429 457.744 116.867 458.009 117.159 458.406L121.688 464.655C121.833 464.852 121.937 465.075 121.995 465.311C122.053 465.548 122.063 465.794 122.026 466.035C121.988 466.276 121.903 466.507 121.776 466.715C121.649 466.923 121.482 467.104 121.284 467.247H121.288Z"
              fill="#73E0AF" id="path2725"></path>
        <g id="g5540">
            <path d="M 100.447 415.208 C 100.447 415.208 90.916 407.987 93.871 399.081 C 96.826 390.175 99.3692 391.017 99.3692 391.017 C 99.3692 391.017 107.806 395.017 106.704 402.794 C 105.602 410.571 103.249 414.3 100.447 415.208 Z"
                  fill="#FF5284" id="path7411"></path>
            <animateTransform attributeName="transform" attributeType="auto" type="rotate"
                              values="357.07606365945827 100.16545763624646 415.274711574556;348.4591980932922 98.17 415.274711574556;357.07606365945827 100.16545763624646 415.274711574556"
                              calcMode="spline" keyTimes="0;0.5;1" keySplines="0 0 1 1;0 0 1 1" dur="1s" begin="0s"
                              repeatCount="indefinite" additive="sum" accumulate="none" fill="freeze"
                              id="animateTransform9333"></animateTransform>
        </g>
        <g id="g3593">
            <path d="M 100.447 415.207 C 100.447 415.207 94.7182 406.483 97.8306 401.572 C 100.943 396.662 100.176 398.802 100.176 398.802 C 100.176 398.802 107.236 400.629 100.447 415.207 Z"
                  fill="#FFD41D" id="path3422"></path>
            <animateTransform attributeName="transform" attributeType="auto" type="rotate"
                              values="0 101.16545763624646 413.524711574556;-11.54509938373144 96.91545763624646 414.274711574556;0 101.16545763624646 413.524711574556"
                              calcMode="spline" keyTimes="0;0.5;1" keySplines="0 0 1 1;0 0 1 1" dur="1s" begin="0s"
                              repeatCount="indefinite" additive="sum" accumulate="none" fill="freeze"
                              id="animateTransform2243"></animateTransform>
        </g>
        <path fill-rule="evenodd" clip-rule="evenodd"
              d="M85.4178 537.931C85.439 538.298 85.3839 538.666 85.2561 539.011C85.1283 539.356 84.9304 539.671 84.6749 539.936C84.4194 540.201 84.1118 540.41 83.7714 540.551C83.431 540.691 83.0652 540.76 82.6969 540.753C81.062 540.753 79.9317 539.543 79.8994 537.749C79.8768 537.365 79.9332 536.98 80.065 536.618C80.1969 536.257 80.4015 535.926 80.6662 535.646C80.9309 535.366 81.2501 535.143 81.6041 534.991C81.9582 534.839 82.3397 534.761 82.7252 534.762C84.2107 534.79 85.4137 536.201 85.4178 537.931Z"
              fill="black" id="path3443"></path>
        <path fill-rule="evenodd" clip-rule="evenodd"
              d="M126.416 538.665C124.854 538.722 123.51 537.347 123.425 535.593C123.363 534.754 123.632 533.924 124.174 533.28C124.716 532.636 125.489 532.229 126.327 532.146C127.942 532.041 129.262 533.513 129.274 535.468C129.278 537.246 128.059 538.605 126.416 538.665Z"
              fill="black" id="path6150"></path>
        <path d="M95.8559 549.57C102.876 552.856 111.119 550.695 115.475 547.514C108.685 545.434 100.684 545.962 93.7285 547.821C94.3725 548.479 95.0858 549.065 95.8559 549.57V549.57Z"
              fill="#FF5284" id="path8124"></path>
        <path d="M117.579 543.067C117.579 538.878 114.959 538.374 113.138 539.088C111.406 539.761 111.326 541.168 105.323 541.813C99.4129 542.446 96.7405 539.1 93.6159 540.717C91.0687 542.031 92.1829 546.212 93.7451 547.824C100.701 545.966 108.681 545.438 115.492 547.518C117.001 546.401 117.575 544.297 117.579 543.067Z"
              fill="black" id="path2297"></path>
        <path d="M148.924 510.685C148.439 510.291 147.932 509.923 147.407 509.584C145.009 508.068 142.021 506.186 138.037 506.762C136.527 507.048 135.062 507.535 133.681 508.21C133.015 508.5 132.389 508.774 131.816 508.967L131.663 509.02C129.111 509.887 126.697 510.709 124.211 510.814C121.824 510.96 119.441 510.463 117.312 509.375C116.74 509.045 116.2 508.664 115.697 508.238C114.918 507.591 114.074 507.028 113.178 506.557C109.234 504.609 105.375 504.456 101.386 506.081C99.8119 506.781 98.3571 507.724 97.075 508.875C95.7308 509.979 94.6529 510.85 93.1512 511.104C89.9217 511.645 86.6922 511.173 83.2932 509.665C78.5782 507.577 75.0621 506.956 69.9716 509.629C69.1319 510.072 68.3044 510.596 67.5051 511.104C65.4463 512.411 63.4965 513.64 61.6557 513.459C60.2758 513.295 58.9837 512.698 57.966 511.753C57.8275 511.592 57.7007 511.421 57.5865 511.241C57.0617 510.355 56.2941 509.638 55.3743 509.173L54.1875 508.633C54.5387 510.246 54.7244 513.019 55.1442 515.801C56.6944 516.922 59.278 518.059 61.1995 518.244C64.6914 518.587 67.5616 516.769 70.0806 515.164C70.8355 514.684 71.55 514.233 72.2201 513.882C75.5869 512.104 77.5326 512.382 81.3232 514.064C85.6225 515.967 89.7441 516.551 93.9344 515.85C96.7117 515.386 98.5162 513.902 100.111 512.596C101.027 511.761 102.064 511.068 103.187 510.54C105.936 509.415 108.281 509.516 111.03 510.87C111.627 511.2 112.189 511.588 112.71 512.028C113.455 512.64 114.256 513.18 115.104 513.64C117.981 515.11 121.197 515.792 124.425 515.616C127.602 515.479 130.456 514.507 133.217 513.568L133.374 513.515C134.141 513.253 134.892 512.927 135.615 512.608C136.602 512.118 137.646 511.751 138.723 511.516C140.794 511.213 142.409 512.116 144.823 513.64C145.186 513.87 145.554 514.156 145.937 514.447C147.425 515.663 149.265 516.37 151.185 516.462L151.314 511.52C150.447 511.514 149.606 511.22 148.924 510.685V510.685Z"
              fill="#6CADEF" id="path8799"></path>
        <path d="M149.599 523.775C149.111 523.381 148.603 523.013 148.077 522.671C145.679 521.159 142.696 519.272 138.707 519.849C137.203 520.135 135.743 520.62 134.368 521.292C133.706 521.582 133.08 521.856 132.503 522.05L132.349 522.102C129.794 522.969 127.384 523.792 124.897 523.9C122.509 524.041 120.127 523.54 117.998 522.449C117.427 522.117 116.887 521.736 116.383 521.308C115.606 520.66 114.761 520.097 113.864 519.627C109.92 517.68 106.057 517.526 102.073 519.151C100.495 519.858 99.037 520.808 97.7533 521.965C96.409 523.07 95.3312 523.941 93.8335 524.195C90.604 524.735 87.3745 524.263 83.9715 522.755C79.2564 520.667 75.7444 520.046 70.6499 522.719C69.8142 523.163 68.9826 523.683 68.1833 524.191C66.1205 525.497 64.1747 526.731 62.3339 526.545C60.9535 526.381 59.6613 525.782 58.6443 524.836C58.5048 524.675 58.378 524.504 58.2648 524.324C57.7412 523.438 56.975 522.721 56.0566 522.256C56.0566 522.256 56.4603 526.767 56.864 529.549C58.3318 530.599 60.0673 531.213 61.8697 531.319C65.3616 531.661 68.2318 529.843 70.7508 528.239C71.5057 527.759 72.2202 527.307 72.8903 526.956C76.2571 525.178 78.2028 525.457 81.9934 527.134C86.2927 529.041 90.4143 529.625 94.6045 528.924C97.3859 528.46 99.1904 526.977 100.785 525.67C101.701 524.833 102.738 524.139 103.861 523.61C106.61 522.485 108.96 522.586 111.705 523.945C112.303 524.274 112.867 524.661 113.388 525.102C114.131 525.714 114.932 526.254 115.778 526.715C118.655 528.184 121.872 528.866 125.099 528.69C128.272 528.553 131.126 527.581 133.891 526.642L134.045 526.59C134.812 526.328 135.562 526.001 136.285 525.682C137.272 525.191 138.316 524.824 139.393 524.59C141.468 524.287 143.083 525.191 145.493 526.711C145.86 526.94 146.224 527.227 146.607 527.517C147.786 528.44 148.468 529.371 150.713 529.424L150.842 524.412C150.232 524.437 150.507 524.489 149.599 523.775Z"
              fill="#B894EA" id="path9400"></path>
        <path d="M46.3359 507.334C46.3359 507.334 53.1703 507.145 54.228 499.355" stroke="white" stroke-width="1.74"
              stroke-linecap="round" stroke-linejoin="round" id="path161"></path>
        <path d="M54.6152 495.445L55.0835 489.066" stroke="white" stroke-width="1.74" stroke-linecap="round"
              stroke-linejoin="round" id="path3016"></path>
        <path d="M83.7539 502.292C83.7539 502.292 90.8022 502.098 91.537 495.357" stroke="white" stroke-width="1.74"
              stroke-linecap="round" stroke-linejoin="round" id="path7638"></path>
        <path d="M139.89 476.576C139.89 476.576 137.957 482.624 142.082 484.466" stroke="white" stroke-width="1.74"
              stroke-linecap="round" stroke-linejoin="round" id="path7743"></path>
        <path d="M153.434 502.44C153.434 502.44 159.683 502.517 159.852 495.76" stroke="white" stroke-width="1.74"
              stroke-linecap="round" stroke-linejoin="round" id="path5598"></path>
        <path d="M97.5801 419.52L97.8627 432.752" stroke="white" stroke-width="1.74" stroke-linecap="round"
              stroke-linejoin="round" id="path4726"></path>
        <path d="M113.707 478.973C113.707 478.973 116.238 491.011 119.108 494.079" stroke="white" stroke-width="1.74"
              stroke-linecap="round" stroke-linejoin="round" id="path287"></path>
    </g>
    <defs id="defs2295">
        <linearGradient id="paint0_linear" x1="159.321" y1="437.617" x2="225.474" y2="437.617"
                        gradientUnits="userSpaceOnUse">
            <stop stop-color="#808080" stop-opacity="0.25" id="stop5030"></stop>
            <stop offset="0.54" stop-color="#808080" stop-opacity="0.12" id="stop4605"></stop>
            <stop offset="1" stop-color="#808080" stop-opacity="0.1" id="stop5636"></stop>
        </linearGradient>
        <linearGradient id="paint1_linear" x1="12091.3" y1="96233.6" x2="12779.7" y2="96233.6"
                        gradientUnits="userSpaceOnUse">
            <stop stop-color="#808080" stop-opacity="0.25" id="stop1690"></stop>
            <stop offset="0.54" stop-color="#808080" stop-opacity="0.12" id="stop5431"></stop>
            <stop offset="1" stop-color="#808080" stop-opacity="0.1" id="stop5422"></stop>
        </linearGradient>
        <linearGradient id="paint2_linear" x1="14118.5" y1="69231.5" x2="14758.3" y2="69231.5"
                        gradientUnits="userSpaceOnUse">
            <stop stop-color="#808080" stop-opacity="0.25" id="stop3618"></stop>
            <stop offset="0.54" stop-color="#808080" stop-opacity="0.12" id="stop2521"></stop>
            <stop offset="1" stop-color="#808080" stop-opacity="0.1" id="stop6614"></stop>
        </linearGradient>
        <linearGradient id="paint3_linear" x1="159255" y1="101490" x2="159255" y2="19275.9"
                        gradientUnits="userSpaceOnUse">
            <stop stop-color="#808080" stop-opacity="0.25" id="stop804"></stop>
            <stop offset="0.54" stop-color="#808080" stop-opacity="0.12" id="stop9531"></stop>
            <stop offset="1" stop-color="#808080" stop-opacity="0.1" id="stop3808"></stop>
        </linearGradient>
        <linearGradient id="paint4_linear" x1="44544.9" y1="22689" x2="44544.9" y2="19900.2"
                        gradientUnits="userSpaceOnUse">
            <stop stop-color="#808080" stop-opacity="0.25" id="stop3183"></stop>
            <stop offset="0.54" stop-color="#808080" stop-opacity="0.12" id="stop264"></stop>
            <stop offset="1" stop-color="#808080" stop-opacity="0.1" id="stop752"></stop>
        </linearGradient>
        <linearGradient id="paint5_linear" x1="72312.4" y1="81651.4" x2="72312.4" y2="54934.4"
                        gradientUnits="userSpaceOnUse">
            <stop stop-color="#808080" stop-opacity="0.25" id="stop8507"></stop>
            <stop offset="0.54" stop-color="#808080" stop-opacity="0.12" id="stop8447"></stop>
            <stop offset="1" stop-color="#808080" stop-opacity="0.1" id="stop1770"></stop>
        </linearGradient>
        <clipPath id="clip0">
            <rect width="327" height="240" fill="white" transform="translate(463 220)" id="rect4574"></rect>
        </clipPath>
        <clipPath id="clip1">
            <rect width="124" height="173" fill="white" transform="translate(38 391)" id="rect3038"></rect>
        </clipPath>
    </defs>
</svg>